<?xml version="1.0" encoding="UTF-8" standalone="no"?>
<!-- Created with Inkscape (http://www.inkscape.org/) -->

<svg
   xmlns:dc="http://purl.org/dc/elements/1.1/"
   xmlns:cc="http://creativecommons.org/ns#"
   xmlns:rdf="http://www.w3.org/1999/02/22-rdf-syntax-ns#"
   xmlns:svg="http://www.w3.org/2000/svg"
   xmlns="http://www.w3.org/2000/svg"
   xmlns:sodipodi="http://sodipodi.sourceforge.net/DTD/sodipodi-0.dtd"
   xmlns:inkscape="http://www.inkscape.org/namespaces/inkscape"
   width="210mm"
   height="297mm"
   id="svg2"
   version="1.1"
   inkscape:version="0.48.5 r10040"
   sodipodi:docname="icons.svg">
  <defs
     id="defs4">
    <marker
       inkscape:stockid="TriangleOutL"
       orient="auto"
       refY="0.0"
       refX="0.0"
       id="TriangleOutL"
       style="overflow:visible">
      <path
         id="path3937"
         d="M 5.77,0.0 L -2.88,5.0 L -2.88,-5.0 L 5.77,0.0 z "
         style="fill-rule:evenodd;stroke:#000000;stroke-width:1.0pt"
         transform="scale(0.8)" />
    </marker>
    <marker
       inkscape:stockid="DiamondM"
       orient="auto"
       refY="0.0"
       refX="0.0"
       id="DiamondM"
       style="overflow:visible">
      <path
         id="path3877"
         d="M 0,-7.0710768 L -7.0710894,0 L 0,7.0710589 L 7.0710462,0 L 0,-7.0710768 z "
         style="fill-rule:evenodd;stroke:#000000;stroke-width:1.0pt"
         transform="scale(0.4)" />
    </marker>
    <marker
       inkscape:stockid="Arrow1Sstart"
       orient="auto"
       refY="0.0"
       refX="0.0"
       id="Arrow1Sstart"
       style="overflow:visible">
      <path
         id="path3807"
         d="M 0.0,0.0 L 5.0,-5.0 L -12.5,0.0 L 5.0,5.0 L 0.0,0.0 z "
         style="fill-rule:evenodd;stroke:#000000;stroke-width:1.0pt"
         transform="scale(0.2) translate(6,0)" />
    </marker>
    <marker
       inkscape:stockid="Arrow2Mend"
       orient="auto"
       refY="0.0"
       refX="0.0"
       id="Arrow2Mend"
       style="overflow:visible;">
      <path
         id="path3822"
         style="fill-rule:evenodd;stroke-width:0.62500000;stroke-linejoin:round;"
         d="M 8.7185878,4.0337352 L -2.2072895,0.016013256 L 8.7185884,-4.0017078 C 6.9730900,-1.6296469 6.9831476,1.6157441 8.7185878,4.0337352 z "
         transform="scale(0.6) rotate(180) translate(0,0)" />
    </marker>
    <marker
       inkscape:stockid="Arrow1Send"
       orient="auto"
       refY="0.0"
       refX="0.0"
       id="Arrow1Send"
       style="overflow:visible;">
      <path
         id="path3810"
         d="M 0.0,0.0 L 5.0,-5.0 L -12.5,0.0 L 5.0,5.0 L 0.0,0.0 z "
         style="fill-rule:evenodd;stroke:#000000;stroke-width:1.0pt;"
         transform="scale(0.2) rotate(180) translate(6,0)" />
    </marker>
    <marker
       inkscape:stockid="Arrow2Lend"
       orient="auto"
       refY="0.0"
       refX="0.0"
       id="Arrow2Lend"
       style="overflow:visible;">
      <path
         id="path3816"
         style="fill-rule:evenodd;stroke-width:0.62500000;stroke-linejoin:round;"
         d="M 8.7185878,4.0337352 L -2.2072895,0.016013256 L 8.7185884,-4.0017078 C 6.9730900,-1.6296469 6.9831476,1.6157441 8.7185878,4.0337352 z "
         transform="scale(1.1) rotate(180) translate(1,0)" />
    </marker>
  </defs>
  <sodipodi:namedview
     id="base"
     pagecolor="#ffffff"
     bordercolor="#666666"
     borderopacity="1.0"
     inkscape:pageopacity="0.0"
     inkscape:pageshadow="2"
     inkscape:zoom="1.0867059"
     inkscape:cx="350.39323"
     inkscape:cy="656.34676"
     inkscape:document-units="px"
     inkscape:current-layer="g3028"
     showgrid="false"
     inkscape:window-width="1230"
     inkscape:window-height="780"
     inkscape:window-x="48"
     inkscape:window-y="-3"
     inkscape:window-maximized="1" />
  <metadata
     id="metadata7">
    <rdf:RDF>
      <cc:Work
         rdf:about="">
        <dc:format>image/svg+xml</dc:format>
        <dc:type
           rdf:resource="http://purl.org/dc/dcmitype/StillImage" />
        <dc:title />
      </cc:Work>
    </rdf:RDF>
  </metadata>
  <g
     inkscape:label="Ebene 1"
     inkscape:groupmode="layer"
     id="layer1">
    <path
       id="path3783"
       style="fill:none;stroke:#f2f2f2;stroke-width:8.75099999999999945;stroke-linecap:butt;stroke-linejoin:miter;stroke-miterlimit:4;stroke-opacity:1;stroke-dasharray:none"
       d="m 243.79734,449.28452 c 0.16318,47.83394 0.64046,47.8777 0.64046,47.8777 l 44.38561,-0.025 m -109.66001,-48.01081 0,174.99032 110.8738,0 0,-127.46654 -45.11153,-47.52378 -65.76227,0 z"
       inkscape:connector-curvature="0"
       inkscape:export-filename="/home/floh/flowgencytm/site/images/newtask-icon.png"
       inkscape:export-xdpi="40.831757"
       inkscape:export-ydpi="40.831757" />
    <rect
       style="opacity:0;fill:#000080;fill-opacity:1;stroke:#000000;stroke-width:3.74200009999999983;stroke-linecap:butt;stroke-linejoin:miter;stroke-miterlimit:4;stroke-opacity:1;stroke-dasharray:none"
       id="rect2985"
       width="236.11111"
       height="235.18518"
       x="149.07408"
       y="352.36218" />
    <path
       style="fill:#00c0ff;fill-opacity:1;stroke:#f00000;stroke-width:5.40573739999999958;stroke-linecap:butt;stroke-linejoin:miter;stroke-miterlimit:4;stroke-opacity:0;stroke-dasharray:none"
       d="m 194.54485,502.27169 0,52.48809 -55.7616,0 0,27.62064 55.7616,0 0,58.03887 28.54627,0 0,-58.03887 58.46936,0 0,-27.62064 -58.46936,0 0,-52.48809 -28.54627,0 z"
       id="rect3757"
       inkscape:connector-curvature="0"
       inkscape:export-filename="/home/floh/flowgencytm/site/images/newtask-icon.png"
       inkscape:export-xdpi="40.831757"
       inkscape:export-ydpi="40.831757" />
    <path
       style="fill:#f2f2f2;fill-opacity:1;stroke:none"
       d="m 300.44063,150.72071 c -7.06011,1.85777 -13.78096,4.53388 -20.05787,7.93998 l 2.06063,18.45095 c -8.71213,5.83782 -16.1385,13.43532 -21.7781,22.28862 l -18.71575,-0.58607 c -2.97446,6.11207 -5.27677,12.6105 -6.82454,19.39629 l 14.76458,9.35771 c -0.66631,4.03689 -1.02084,8.17608 -1.02084,12.40149 0,8.71404 1.46579,17.089 4.17788,24.87861 l -11.11592,13.2144 c 2.70767,5.57521 5.97277,10.82507 9.71693,15.69093 l 14.84023,-5.23665 c 9.55866,11.40846 22.43413,19.93002 37.12877,24.14129 l 2.89248,14.93475 c 5.40165,1.02904 10.9785,1.60007 16.67382,1.62574 l 4.74517,-13.70593 c 17.01189,-0.76485 32.56966,-7.14157 44.84195,-17.33574 l 12.68505,6.65468 c 4.00934,-3.73929 7.68504,-7.82538 10.96468,-12.23141 l -7.80766,-12.55256 c 7.27723,-11.62003 11.49396,-25.3566 11.49396,-40.07811 0,-1.63137 -0.0682,-3.25281 -0.16997,-4.85843 l 13.89489,-6.21967 c -0.63899,-6.09043 -1.88425,-12.00489 -3.66757,-17.67588 l -16.54148,-1.89033 C 388.29403,197.322 379.94038,186.9683 369.51844,179.22898 l 4.23458,-16.37147 c -5.66331,-3.76514 -11.76292,-6.9089 -18.22414,-9.33891 l -12.91175,13.02536 c -5.81138,-1.43081 -11.87666,-2.19298 -18.12974,-2.19298 -4.46754,0 -8.84632,0.39122 -13.10079,1.13428 l -10.94597,-14.76455 z m 24.02798,43.87778 c 25.05776,0 45.37119,20.31337 45.37119,45.37119 0,25.05791 -20.31343,45.3713 -45.37119,45.3713 -25.05789,0 -45.37136,-20.31339 -45.37136,-45.3713 0,-25.05782 20.31347,-45.37119 45.37136,-45.37119 z"
       id="path3847"
       inkscape:connector-curvature="0"
       inkscape:export-filename="/home/floh/flowgencytm/site/images/settings-icon.png"
       inkscape:export-xdpi="38.456974"
       inkscape:export-ydpi="38.456974" />
    <path
       sodipodi:type="arc"
       style="fill:none;fill-opacity:1;stroke:#f2f2f2;stroke-opacity:1;stroke-width:10.28364071999999929;stroke-miterlimit:4;stroke-dasharray:none"
       id="path3923"
       sodipodi:cx="576.85187"
       sodipodi:cy="211.62144"
       sodipodi:rx="73.148148"
       sodipodi:ry="75"
       d="m 650.00002,211.62144 a 73.148148,75 0 1 1 -146.2963,0 73.148148,75 0 1 1 146.2963,0 z"
       transform="matrix(1.0253165,0,0,1,-12.751997,1.0404802e-5)"
       inkscape:export-filename="/home/floh/flowgencytm/site/images/info-icon.png"
       inkscape:export-xdpi="50.536167"
       inkscape:export-ydpi="50.536167" />
    <text
       xml:space="preserve"
       style="font-size:144px;font-style:normal;font-variant:normal;font-weight:bold;font-stretch:normal;line-height:125%;letter-spacing:0px;word-spacing:0px;fill:#00c0ff;fill-opacity:1;stroke:none;font-family:DejaVu Serif;-inkscape-font-specification:DejaVu Serif Bold"
       x="551.85181"
       y="261.62143"
       id="text3925"
       sodipodi:linespacing="125%"
       inkscape:export-filename="/home/floh/flowgencytm/site/images/info-icon.png"
       inkscape:export-xdpi="50.450001"
       inkscape:export-ydpi="50.450001"><tspan
         sodipodi:role="line"
         id="tspan3927"
         x="551.85181"
         y="261.62143">i</tspan></text>
    <path
       style="fill:#00c0ff;fill-opacity:1;stroke:#f00000;stroke-width:8.88317965999999792;stroke-linecap:butt;stroke-linejoin:miter;stroke-miterlimit:4;stroke-opacity:0;stroke-dasharray:none"
       d="m 376.75116,123.04282 c -6.58525,0 -12.94093,0.97619 -18.9375,2.78125 l 19.46875,19.5 12.15625,-4.625 33.21875,30.4375 -12.71875,47.90625 -45.90625,17.4375 -33.21875,-30.4375 3.8125,-14.34375 -20.96875,-20.96875 c -1.60288,5.67443 -2.46875,11.6551 -2.46875,17.84375 0,36.20691 29.35559,65.5625 65.5625,65.5625 6.82372,0 13.40918,-1.03404 19.59375,-2.96875 l 32.60648,27.12384 34.57986,-26.81018 -23.18634,-47.12616 c 1.25018,-5.05879 1.9375,-10.33598 1.9375,-15.78125 0,-36.20691 -29.32434,-65.53125 -65.53125,-65.53125 z"
       id="path3930"
       inkscape:connector-curvature="0"
       sodipodi:nodetypes="scccccccccssccccss"
       inkscape:export-filename="/home/floh/flowgencytm/site/images/settings-icon.png"
       inkscape:export-xdpi="38.456974"
       inkscape:export-ydpi="38.456974" />
    <g
       inkscape:export-ydpi="72.181786"
       inkscape:export-xdpi="72.181786"
       inkscape:export-filename="/home/floh/flowgencytm/site/images/filter-icon.png"
       id="g3028">
      <path
         sodipodi:nodetypes="czczc"
         inkscape:connector-curvature="0"
         id="rect3810"
         d="m 388.98032,566.63115 c 0,0 97.84483,8.63665 115.74074,-9.25926 17.89592,-17.89591 12.03704,-14.81482 12.03704,-14.81482 0,0 -103.77931,-3.32542 -114.81482,3.7037 -11.0355,7.02913 -12.96296,20.37038 -12.96296,20.37038 z"
         style="fill:none;stroke:#f2f2f2;stroke-width:6.9000001;stroke-miterlimit:4;stroke-opacity:1;stroke-dasharray:none" />
      <path
         sodipodi:nodetypes="czczc"
         inkscape:connector-curvature="0"
         id="rect3810-7"
         d="m 390.37351,524.31579 c 0,0 97.84483,8.63665 115.74074,-9.25926 17.89592,-17.89591 12.03704,-14.81482 12.03704,-14.81482 0,0 -103.77931,-3.32542 -114.81482,3.7037 -11.0355,7.02913 -12.96296,20.37038 -12.96296,20.37038 z"
         style="fill:none;stroke:#f2f2f2;stroke-width:6.9000001;stroke-miterlimit:4;stroke-opacity:1;stroke-dasharray:none" />
      <path
         sodipodi:nodetypes="czczc"
         inkscape:connector-curvature="0"
         id="rect3810-9"
         d="m 393.15128,482.64913 c 0,0 97.84483,8.63665 115.74074,-9.25926 17.89592,-17.89591 12.03704,-14.81482 12.03704,-14.81482 0,0 -103.77931,-3.32542 -114.81482,3.7037 -11.0355,7.02913 -12.96296,20.37038 -12.96296,20.37038 z"
         style="fill:none;stroke:#f2f2f2;stroke-width:6.9000001;stroke-miterlimit:4;stroke-opacity:1;stroke-dasharray:none" />
      <g
         transform="matrix(0.881151,0.09130244,-0.09609641,0.92741715,415.23965,154.7072)"
         id="g5574">
        <path
           style="font-size:medium;font-style:normal;font-variant:normal;font-weight:normal;font-stretch:normal;text-indent:0;text-align:start;text-decoration:none;line-height:normal;letter-spacing:normal;word-spacing:normal;text-transform:none;direction:ltr;block-progression:tb;writing-mode:lr-tb;text-anchor:start;baseline-shift:baseline;color:#000000;fill:#00c0ff;fill-opacity:1;stroke:none;stroke-width:15.85099983;marker:none;visibility:visible;display:inline;overflow:visible;enable-background:accumulate;font-family:Sans;-inkscape-font-specification:Sans"
           d="m 472.15625,454.0625 c -9.65192,0.098 -19.29582,3.6592 -27.1875,10.8125 -13.28317,12.04034 -18.03633,30.92777 -13.5625,47.78125 -5.51466,2.55869 -10.82997,5.86241 -16.4375,8.15625 -8.46426,4.64486 -17.9214,7.82123 -25.84375,13.25 -5.61388,5.63735 0.64536,17.12808 8.4375,14.25 14.06561,-5.40836 27.03894,-13.55315 40.9375,-19.375 0.19204,-0.0874 0.39688,-0.18854 0.59375,-0.28125 0.22599,0.30402 0.45318,0.60672 0.6875,0.90625 15.1618,19.3813 42.52436,21.91291 60.5625,5.5625 l -9.1875,-11.1875 c -12.26725,11.11948 -30.17355,9.49023 -40.53125,-3.75 -10.3577,-13.24023 -8.76725,-33.00552 3.5,-44.125 12.26725,-11.11948 30.17355,-9.45898 40.53125,3.78125 C 499.05517,485.46689 501.5,492.60111 501.5,500 l 14.03125,0 c 0,-10.80185 -3.53904,-21.26351 -10.03125,-29.5625 -7.5809,-9.69065 -18.20206,-15.17481 -29.1875,-16.1875 -1.37318,-0.12659 -2.7774,-0.2015 -4.15625,-0.1875 z"
           transform="matrix(1.1288356,0,0,1.0725212,-428.6346,-172.22046)"
           id="path3021"
           inkscape:connector-curvature="0" />
        <path
           style="fill:#00c0ff;fill-opacity:1;stroke:#00c0ff;stroke-width:0.44582939;stroke-linecap:square;stroke-linejoin:miter;stroke-miterlimit:0;stroke-opacity:1;stroke-dasharray:none"
           d="m 159.88282,360.01513 -29.2762,0.91656 15.05268,18.72746 14.22353,-19.64397 z m -29.53369,0.0412 -0.21139,0.29195 0.15629,0.19445 0.055,-0.4864 z"
           id="rect5567"
           inkscape:connector-curvature="0" />
      </g>
    </g>
  </g>
</svg>
