<?xml version="1.0" encoding="UTF-8" standalone="no"?>
<!-- Created with Inkscape (http://www.inkscape.org/) -->

<svg
   xmlns:dc="http://purl.org/dc/elements/1.1/"
   xmlns:cc="http://creativecommons.org/ns#"
   xmlns:rdf="http://www.w3.org/1999/02/22-rdf-syntax-ns#"
   xmlns:svg="http://www.w3.org/2000/svg"
   xmlns="http://www.w3.org/2000/svg"
   xmlns:sodipodi="http://sodipodi.sourceforge.net/DTD/sodipodi-0.dtd"
   xmlns:inkscape="http://www.inkscape.org/namespaces/inkscape"
   width="210mm"
   height="297mm"
   id="svg2"
   version="1.1"
   inkscape:version="0.48.3.1 r9886"
   sodipodi:docname="logo.svg">
  <defs
     id="defs4">
    <filter
       id="filter6363"
       inkscape:label="Glow"
       inkscape:menu="Shadows and Glows"
       inkscape:menu-tooltip="Glow of object's own color at the edges"
       color-interpolation-filters="sRGB">
      <feGaussianBlur
         id="feGaussianBlur6365"
         stdDeviation="5"
         result="result91" />
      <feComposite
         id="feComposite6367"
         in2="result91"
         in="SourceGraphic"
         operator="over" />
    </filter>
    <filter
       id="filter6369"
       inkscape:label="Glow"
       inkscape:menu="Shadows and Glows"
       inkscape:menu-tooltip="Glow of object's own color at the edges"
       color-interpolation-filters="sRGB">
      <feGaussianBlur
         id="feGaussianBlur6371"
         stdDeviation="5"
         result="result91" />
      <feComposite
         id="feComposite6373"
         in2="result91"
         in="SourceGraphic"
         operator="over" />
    </filter>
    <filter
       id="filter6375"
       inkscape:label="Glow"
       inkscape:menu="Shadows and Glows"
       inkscape:menu-tooltip="Glow of object's own color at the edges"
       color-interpolation-filters="sRGB">
      <feGaussianBlur
         id="feGaussianBlur6377"
         stdDeviation="5"
         result="result91" />
      <feComposite
         id="feComposite6379"
         in2="result91"
         in="SourceGraphic"
         operator="over" />
    </filter>
    <filter
       id="filter6381"
       inkscape:label="Glow"
       inkscape:menu="Shadows and Glows"
       inkscape:menu-tooltip="Glow of object's own color at the edges"
       color-interpolation-filters="sRGB">
      <feGaussianBlur
         id="feGaussianBlur6383"
         stdDeviation="5"
         result="result91" />
      <feComposite
         id="feComposite6385"
         in2="result91"
         in="SourceGraphic"
         operator="over" />
    </filter>
    <filter
       id="filter6387"
       inkscape:label="Glow"
       inkscape:menu="Shadows and Glows"
       inkscape:menu-tooltip="Glow of object's own color at the edges"
       color-interpolation-filters="sRGB">
      <feGaussianBlur
         id="feGaussianBlur6389"
         stdDeviation="5"
         result="result91" />
      <feComposite
         id="feComposite6391"
         in2="result91"
         in="SourceGraphic"
         operator="over" />
    </filter>
    <filter
       id="filter6393"
       inkscape:label="Glow"
       inkscape:menu="Shadows and Glows"
       inkscape:menu-tooltip="Glow of object's own color at the edges"
       color-interpolation-filters="sRGB">
      <feGaussianBlur
         id="feGaussianBlur6395"
         stdDeviation="5"
         result="result91" />
      <feComposite
         id="feComposite6397"
         in2="result91"
         in="SourceGraphic"
         operator="over" />
    </filter>
    <filter
       id="filter6399"
       inkscape:label="Glow"
       inkscape:menu="Shadows and Glows"
       inkscape:menu-tooltip="Glow of object's own color at the edges"
       color-interpolation-filters="sRGB">
      <feGaussianBlur
         id="feGaussianBlur6401"
         stdDeviation="5"
         result="result91" />
      <feComposite
         id="feComposite6403"
         in2="result91"
         in="SourceGraphic"
         operator="over" />
    </filter>
    <filter
       id="filter6405"
       inkscape:label="Glow"
       inkscape:menu="Shadows and Glows"
       inkscape:menu-tooltip="Glow of object's own color at the edges"
       color-interpolation-filters="sRGB">
      <feGaussianBlur
         id="feGaussianBlur6407"
         stdDeviation="5"
         result="result91" />
      <feComposite
         id="feComposite6409"
         in2="result91"
         in="SourceGraphic"
         operator="over" />
    </filter>
    <filter
       id="filter6411"
       inkscape:label="Glow"
       inkscape:menu="Shadows and Glows"
       inkscape:menu-tooltip="Glow of object's own color at the edges"
       color-interpolation-filters="sRGB">
      <feGaussianBlur
         id="feGaussianBlur6413"
         stdDeviation="5"
         result="result91" />
      <feComposite
         id="feComposite6415"
         in2="result91"
         in="SourceGraphic"
         operator="over" />
    </filter>
    <filter
       id="filter6417"
       inkscape:label="Glow"
       inkscape:menu="Shadows and Glows"
       inkscape:menu-tooltip="Glow of object's own color at the edges"
       color-interpolation-filters="sRGB">
      <feGaussianBlur
         id="feGaussianBlur6419"
         stdDeviation="5"
         result="result91" />
      <feComposite
         id="feComposite6421"
         in2="result91"
         in="SourceGraphic"
         operator="over" />
    </filter>
    <filter
       id="filter6423"
       inkscape:label="Glow"
       inkscape:menu="Shadows and Glows"
       inkscape:menu-tooltip="Glow of object's own color at the edges"
       color-interpolation-filters="sRGB">
      <feGaussianBlur
         id="feGaussianBlur6425"
         stdDeviation="5"
         result="result91" />
      <feComposite
         id="feComposite6427"
         in2="result91"
         in="SourceGraphic"
         operator="over" />
    </filter>
  </defs>
  <sodipodi:namedview
     id="base"
     pagecolor="#ffffff"
     bordercolor="#666666"
     borderopacity="1.0"
     inkscape:pageopacity="0.0"
     inkscape:pageshadow="2"
     inkscape:zoom="1.3289991"
     inkscape:cx="286.25859"
     inkscape:cy="694.91052"
     inkscape:document-units="px"
     inkscape:current-layer="layer1"
     showgrid="false"
     inkscape:window-width="1084"
     inkscape:window-height="749"
     inkscape:window-x="756"
     inkscape:window-y="27"
     inkscape:window-maximized="0" />
  <metadata
     id="metadata7">
    <rdf:RDF>
      <cc:Work
         rdf:about="">
        <dc:format>image/svg+xml</dc:format>
        <dc:type
           rdf:resource="http://purl.org/dc/dcmitype/StillImage" />
        <dc:title></dc:title>
      </cc:Work>
    </rdf:RDF>
  </metadata>
  <g
     inkscape:label="Ebene 1"
     inkscape:groupmode="layer"
     id="layer1">
    <path
       inkscape:connector-curvature="0"
       id="path2992"
       style="font-size:75.47540282999997885px;font-style:italic;font-variant:normal;font-weight:bold;font-stretch:normal;text-align:start;line-height:125%;letter-spacing:0px;word-spacing:0px;writing-mode:lr-tb;text-anchor:start;fill:#afff00;fill-opacity:1;stroke:#000000;stroke-width:2;stroke-miterlimit:4;stroke-opacity:1;stroke-dasharray:none;font-family:Sans;-inkscape-font-specification:Sans Bold Italic;filter:url(#filter6423)"
       d="m 147.20855,336.02499 c 12.46629,-2.00871 32.56841,-0.97402 32.56841,-0.97402 0,0 -1.45269,6.86381 -6.47178,10.96705 -5.0191,4.10324 -20.184,4.00689 -20.184,4.00689 l -1.49071,11.05162 21.01093,0.35414 c 0,0 -1.63225,6.07969 -3.94209,7.90649 -5.01117,3.96322 -18.66206,4.37019 -18.66206,4.37019 0,0 -2.27904,11.36944 -7.80845,15.98821 -3.69494,5.12098 -9.19279,5.28053 -9.19279,5.28053 0,0 4.74408,-57.43188 14.17254,-58.9511 z"
       sodipodi:nodetypes="sczcccacccs"
       inkscape:export-filename="/tmp/flowtime-logo.png"
       inkscape:export-xdpi="90"
       inkscape:export-ydpi="90" />
    <path
       inkscape:connector-curvature="0"
       id="path2994"
       style="font-size:75.47540282999999306px;font-style:italic;font-variant:normal;font-weight:bold;font-stretch:normal;text-align:start;line-height:125%;letter-spacing:0px;word-spacing:0px;writing-mode:lr-tb;text-anchor:start;fill:#ffff00;fill-opacity:1;stroke:#000000;stroke-width:2;stroke-miterlimit:4;stroke-opacity:1;stroke-dasharray:none;font-family:Sans;-inkscape-font-specification:Sans Bold Italic;filter:url(#filter6417)"
       d="m 187.5165,313.29928 c 0,0 5.37646,0.7355 8.01032,6.28571 2.63387,5.55022 -2.85155,41.49859 -2.85155,41.49859 l 23.02663,0 c 0,0 -0.20727,4.38023 -6.2967,9.56038 -6.08943,5.18014 -31.83046,2.00803 -31.83046,2.00803 l 9.94176,-59.35271"
       sodipodi:nodetypes="czcczcc"
       inkscape:export-filename="/tmp/flowtime-logo.png"
       inkscape:export-xdpi="90"
       inkscape:export-ydpi="90" />
    <path
       style="font-size:75.47540282999997885px;font-style:italic;font-variant:normal;font-weight:bold;font-stretch:normal;text-align:start;line-height:125%;letter-spacing:0px;word-spacing:0px;writing-mode:lr-tb;text-anchor:start;fill:#ffff00;fill-opacity:1;stroke:#000000;font-family:Sans;-inkscape-font-specification:Sans Bold Italic;stroke-width:2;stroke-miterlimit:4;stroke-dasharray:none;stroke-opacity:1;filter:url(#filter6411)"
       inkscape:connector-curvature="0"
       id="path2996"
       d="m 250.01598,345.86702 c -4e-5,-3.60222 -0.68117,-6.34483 -2.04342,-8.22786 -1.34528,-1.88294 -3.30354,-2.82444 -5.87482,-2.82447 -3.40571,3e-5 -6.26648,1.84209 -8.58233,5.52616 -2.29885,3.66367 -3.44828,8.25857 -3.44826,13.78471 -2e-5,3.52038 0.67261,6.25277 2.01787,8.19715 1.34523,1.9444 3.21836,2.91659 5.61939,2.91658 1.95825,1e-5 3.69514,-0.4912 5.2107,-1.47364 1.53254,-1.00289 2.83521,-2.47653 3.90803,-4.42093 1.02168,-1.86251 1.805,-3.9604 2.34993,-6.29369 0.56191,-2.33325 0.84287,-4.72792 0.84291,-7.18401 m -6.48784,-19.6179 c 5.07444,5e-5 9.15276,1.69884 12.23494,5.09636 3.09914,3.37713 4.64873,7.79807 4.64876,13.2628 -3e-5,3.72507 -0.47683,7.24544 -1.43038,10.56111 -0.93661,3.31571 -2.30739,6.2937 -4.11238,8.93396 -2.21372,3.25431 -4.8361,5.68993 -7.86714,7.30684 -3.01406,1.59644 -6.49638,2.39466 -10.44695,2.39466 -5.05747,0 -9.12726,-1.68856 -12.20941,-5.06565 -3.08215,-3.37709 -4.62322,-7.80826 -4.62322,-13.2935 0,-3.74548 0.46827,-7.2761 1.40485,-10.59181 0.93656,-3.31568 2.31585,-6.3039 4.13791,-8.96468 2.17964,-3.23378 4.77648,-5.64892 7.79052,-7.24541 3.03104,-1.59639 6.52187,-2.39463 10.4725,-2.39468"
       inkscape:export-filename="/tmp/flowtime-logo.png"
       inkscape:export-xdpi="90"
       inkscape:export-ydpi="90" />
    <path
       style="font-size:75.47540282999999306px;font-style:italic;font-variant:normal;font-weight:bold;font-stretch:normal;text-align:start;line-height:125%;letter-spacing:0px;word-spacing:0px;writing-mode:lr-tb;text-anchor:start;fill:#ffff00;fill-opacity:1;stroke:#000000;stroke-width:2;stroke-miterlimit:4;stroke-opacity:1;stroke-dasharray:none;font-family:Sans;-inkscape-font-specification:Sans Bold Italic;filter:url(#filter6405)"
       inkscape:connector-curvature="0"
       id="path2998"
       d="m 265.17868,326.62896 c 0,0 1.77314,-1.03159 7.00363,4.01606 5.23049,5.04766 3.62598,30.1624 3.62598,30.1624 l 12.40118,-34.17846 c 0,0 2.40122,-1.45804 7.66965,3.61446 5.26843,5.07249 3.30368,30.564 3.30368,30.564 l 11.97812,-34.17846 c 0,0 3.56621,-0.17182 4.90631,6.0241 1.3401,6.19591 -7.71309,30.67763 -12.83013,35.41229 -5.11705,4.73466 -10.47965,5.59441 -10.47965,5.59441 l -1.32209,-35.75349 c 0,0 -8.09018,27.13027 -13.47068,31.55769 -5.3805,4.42742 -11.09371,4.1958 -11.09371,4.1958 l -1.69229,-47.0308"
       sodipodi:nodetypes="czcczcczzcczcc"
       inkscape:export-filename="/tmp/flowtime-logo.png"
       inkscape:export-xdpi="90"
       inkscape:export-ydpi="90" />
    <path
       inkscape:connector-curvature="0"
       id="path3000"
       style="font-size:75.47540282999997885px;font-style:italic;font-variant:normal;font-weight:bold;font-stretch:normal;text-align:start;line-height:125%;letter-spacing:0px;word-spacing:0px;writing-mode:lr-tb;text-anchor:start;fill:#ffff00;fill-opacity:1;stroke:#000000;font-family:Sans;-inkscape-font-specification:Sans Bold Italic;stroke-opacity:1;stroke-width:3;stroke-miterlimit:4;stroke-dasharray:none;filter:url(#filter6399)"
       d="m 374.68242,300.74616 c 0,0 -0.89042,6.8363 -9.94284,11.54378 -9.05243,4.70747 -18.87349,6.10104 -18.87349,6.10104 0,0 -7.21434,53.17771 -16.55142,64.16764 -9.3371,10.98995 -15.70414,8.71577 -15.70414,8.71577 l 12.19352,-72.88341 -25.84611,0 c 0,0 -2.72314,-2.12385 8.25178,-12.41536 10.97493,-10.29152 66.4727,-5.22946 66.4727,-5.22946 z"
       sodipodi:nodetypes="czczccczc"
       inkscape:export-filename="/tmp/flowtime-logo.png"
       inkscape:export-xdpi="90"
       inkscape:export-ydpi="90" />
    <path
       inkscape:connector-curvature="0"
       id="path3002"
       style="font-size:75.47540282999999306px;font-style:italic;font-variant:normal;font-weight:bold;font-stretch:normal;text-align:start;line-height:125%;letter-spacing:0px;word-spacing:0px;writing-mode:lr-tb;text-anchor:start;fill:#ffeb00;fill-opacity:1;stroke:#000000;stroke-width:3;stroke-miterlimit:4;stroke-opacity:1;stroke-dasharray:none;font-family:Sans;-inkscape-font-specification:Sans Bold Italic;filter:url(#filter6393)"
       d="m 368.93012,327.44342 c 10.53118,-14.88108 12.59083,-8.71577 12.59083,-8.71577 0,0 -3.36377,55.05094 -14.76653,64.70255 -11.40274,9.65162 -13.46239,7.84419 -13.46239,7.84419 0,0 5.10692,-48.94991 15.63809,-63.83097 z"
       sodipodi:nodetypes="zczcz"
       inkscape:export-filename="/tmp/flowtime-logo.png"
       inkscape:export-xdpi="90"
       inkscape:export-ydpi="90" />
    <path
       inkscape:connector-curvature="0"
       id="path3004"
       style="font-size:75.47540282999999306px;font-style:italic;font-variant:normal;font-weight:bold;font-stretch:normal;text-align:start;line-height:125%;letter-spacing:0px;word-spacing:0px;writing-mode:lr-tb;text-anchor:start;fill:#ffd700;fill-opacity:1;stroke:#000000;stroke-width:3;stroke-miterlimit:4;stroke-opacity:1;stroke-dasharray:none;font-family:Sans;-inkscape-font-specification:Sans Bold Italic;filter:url(#filter6387)"
       d="m 397.34755,318.72765 c 0,0 6.008,-0.98683 13.65087,5.22945 7.64287,6.21629 14.11872,33.30342 14.11872,33.30342 l 21.04641,-38.53287 c 0,0 2.5684,-3.25541 12.70113,8.71577 10.13275,11.97116 -0.76353,49.58535 -10.40865,58.60152 -9.64513,9.01617 -9.14092,5.22945 -9.14092,5.22945 l 8.89462,-53.54756 c 0,0 -13.05222,23.69914 -18.14474,31.75767 -5.0925,8.05854 -12.13037,7.84419 -12.13037,7.84419 l -8.60229,-39.60186 c 0,0 -3.54171,38.2113 -12.38093,45.70337 -8.83924,7.49209 -11.75564,7.84419 -11.75564,7.84419 l 12.15179,-72.54674"
       sodipodi:nodetypes="czcczzcczcczcc"
       inkscape:export-filename="/tmp/flowtime-logo.png"
       inkscape:export-xdpi="90"
       inkscape:export-ydpi="90" />
    <path
       inkscape:connector-curvature="0"
       id="path3006"
       style="font-size:75.47540282999999306px;font-style:italic;font-variant:normal;font-weight:bold;font-stretch:normal;text-align:start;line-height:125%;letter-spacing:0px;word-spacing:0px;writing-mode:lr-tb;text-anchor:start;fill:#ffc300;fill-opacity:1;stroke:#000000;stroke-width:3;stroke-miterlimit:4;stroke-opacity:1;stroke-dasharray:none;font-family:Sans;-inkscape-font-specification:Sans Bold Italic;filter:url(#filter6381)"
       d="m 481.36989,324.59402 c 8.472,-7.78805 40.14575,-5.86637 40.14575,-5.86637 0,0 -4.92957,7.04727 -10.22443,11.52531 -5.29485,4.47805 -19.42428,2.61473 -19.42428,2.61473 l -2.25497,13.5084 25.68163,0 c 0,0 -4.29995,7.2291 -9.39462,11.52531 -5.09466,4.29621 -18.66727,2.61473 -18.66727,2.61473 l -2.75608,16.61822 28.1454,0 c 0,0 -2.6978,6.0652 -10.14091,12.39689 -7.4431,6.3317 -36.46186,1.74315 -36.46186,1.74315 0,0 6.87965,-58.89231 15.35164,-66.68037 z"
       sodipodi:nodetypes="zczccczccczcz"
       inkscape:export-filename="/tmp/flowtime-logo.png"
       inkscape:export-xdpi="90"
       inkscape:export-ydpi="90" />
    <g
       transform="matrix(0.99013665,0,0,1.0099616,-2.8620644,0)"
       style="font-size:66.78152466000000231px;font-style:italic;font-weight:bold;line-height:125%;letter-spacing:0px;word-spacing:0px;fill:#ffff00;fill-opacity:1;stroke:#000000;stroke-opacity:1;font-family:Sans;-inkscape-font-specification:Sans Bold Italic;filter:url(#filter6375)"
       id="text3016"
       inkscape:export-filename="/tmp/flowtime-logo.png"
       inkscape:export-xdpi="90"
       inkscape:export-ydpi="90">
      <path
         d="m 86.761789,284.53985 c 0,0 8.551569,1.63125 13.132259,4.53414 4.580692,2.90288 7.704362,13.49818 7.704362,13.49818 l 14.47802,-18.03232 c 0,0 5.03799,6.4592 0.63588,14.73594 -4.40211,8.27674 -10.15746,13.63317 -10.15746,13.63317 0,0 -1.93761,11.14199 -6.25805,14.64722 -4.32044,3.50523 -10.241684,5.66767 -10.241684,5.66767 L 100.0007,312.90896 86.761789,284.53985"
         id="path3826"
         inkscape:connector-curvature="0"
         sodipodi:nodetypes="czcczczccc" />
    </g>
    <path
       inkscape:connector-curvature="0"
       id="path3006-7"
       style="font-size:75.47540282999999306px;font-style:italic;font-variant:normal;font-weight:bold;font-stretch:normal;text-align:start;line-height:125%;letter-spacing:0px;word-spacing:0px;writing-mode:lr-tb;text-anchor:start;fill:#ffff00;fill-opacity:1;stroke:#000000;stroke-opacity:1;font-family:Sans;-inkscape-font-specification:Sans Bold Italic;filter:url(#filter6369)"
       d="m 127.53403,291.26637 c 5.55447,-5.10605 26.32062,-3.84615 26.32062,-3.84615 0,0 -3.23196,4.62038 -6.70341,7.5563 -3.47144,2.93593 -12.73507,1.71429 -12.73507,1.71429 l -1.47842,8.85646 16.83756,0 c 0,0 -2.81916,4.73959 -6.15936,7.5563 -3.3402,2.81671 -12.23876,1.71429 -12.23876,1.71429 l -1.80696,10.89534 18.45287,0 c 0,0 -1.76875,3.97651 -6.64865,8.12773 -4.87989,4.15123 -23.90536,1.14286 -23.90536,1.14286 0,0 4.51048,-38.61136 10.06494,-43.71742 z"
       sodipodi:nodetypes="zczccczccczcz"
       inkscape:export-filename="/tmp/flowtime-logo.png"
       inkscape:export-xdpi="90"
       inkscape:export-ydpi="90" />
    <path
       inkscape:connector-curvature="0"
       id="path2994-0"
       style="font-size:75.47540282999999306px;font-style:italic;font-variant:normal;font-weight:bold;font-stretch:normal;text-align:start;line-height:125%;letter-spacing:0px;word-spacing:0px;writing-mode:lr-tb;text-anchor:start;fill:#ffff00;fill-opacity:1;stroke:#000000;stroke-width:1;stroke-miterlimit:4;stroke-opacity:1;stroke-dasharray:none;font-family:Sans;-inkscape-font-specification:Sans Bold Italic;filter:url(#filter6363)"
       d="m 159.05171,287.02737 c 0,0 4.4326,0.60638 6.60407,5.18223 2.17149,4.57586 -2.35094,34.21332 -2.35094,34.21332 l 18.9842,0 c 0,0 -0.17089,3.61126 -5.19128,7.88201 -5.02041,4.27074 -26.24248,1.65552 -26.24248,1.65552 l 8.19643,-48.93308"
       sodipodi:nodetypes="czcczcc"
       inkscape:export-filename="/tmp/flowtime-logo.png"
       inkscape:export-xdpi="90"
       inkscape:export-ydpi="90" />
  </g>
</svg>
