<?xml version="1.0" encoding="UTF-8" standalone="no"?>
<!-- Created with Inkscape (http://www.inkscape.org/) -->

<svg
   xmlns:dc="http://purl.org/dc/elements/1.1/"
   xmlns:cc="http://creativecommons.org/ns#"
   xmlns:rdf="http://www.w3.org/1999/02/22-rdf-syntax-ns#"
   xmlns:svg="http://www.w3.org/2000/svg"
   xmlns="http://www.w3.org/2000/svg"
   xmlns:sodipodi="http://sodipodi.sourceforge.net/DTD/sodipodi-0.dtd"
   xmlns:inkscape="http://www.inkscape.org/namespaces/inkscape"
   width="210mm"
   height="297mm"
   id="svg2"
   version="1.1"
   inkscape:version="0.48.3.1 r9886"
   sodipodi:docname="Neues Dokument 1">
  <defs
     id="defs4" />
  <sodipodi:namedview
     id="base"
     pagecolor="#ffffff"
     bordercolor="#666666"
     borderopacity="1.0"
     inkscape:pageopacity="0.0"
     inkscape:pageshadow="2"
     inkscape:zoom="0.54"
     inkscape:cx="561.24674"
     inkscape:cy="520"
     inkscape:document-units="px"
     inkscape:current-layer="layer1"
     showgrid="false"
     inkscape:window-width="1393"
     inkscape:window-height="758"
     inkscape:window-x="0"
     inkscape:window-y="260"
     inkscape:window-maximized="0" />
  <metadata
     id="metadata7">
    <rdf:RDF>
      <cc:Work
         rdf:about="">
        <dc:format>image/svg+xml</dc:format>
        <dc:type
           rdf:resource="http://purl.org/dc/dcmitype/StillImage" />
        <dc:title></dc:title>
      </cc:Work>
    </rdf:RDF>
  </metadata>
  <g
     inkscape:label="Ebene 1"
     inkscape:groupmode="layer"
     id="layer1">
    <text
       xml:space="preserve"
       style="font-size:40px;font-style:oblique;font-variant:normal;font-weight:normal;font-stretch:normal;line-height:125%;letter-spacing:0px;word-spacing:0px;fill:#000000;fill-opacity:1;stroke:none;font-family:DejaVu Sans;-inkscape-font-specification:DejaVu Sans Oblique"
       x="142.59259"
       y="352.36218"
       id="text3873"
       sodipodi:linespacing="125%"
       inkscape:export-filename="/tmp/flowtime-logo.png"
       inkscape:export-xdpi="90"
       inkscape:export-ydpi="90"><tspan
         sodipodi:role="line"
         id="tspan3875"
         x="142.59259"
         y="352.36218">12</tspan></text>
    <path
       style="fill:none;stroke:#ffdd55;stroke-width:9.39999961999999911;stroke-linecap:round;stroke-linejoin:miter;stroke-miterlimit:4;stroke-opacity:1;stroke-dasharray:none"
       d="M 167.11124,449.6636 C 53.259129,512.46818 53.259129,512.46818 53.259129,512.46818 l 0,0"
       id="path3877"
       inkscape:connector-curvature="0"
       inkscape:export-filename="/tmp/flowtime-logo.png"
       inkscape:export-xdpi="90"
       inkscape:export-ydpi="90" />
    <path
       style="fill:none;stroke:#ffdd55;stroke-width:17.50253295999999992;stroke-linecap:round;stroke-linejoin:miter;stroke-miterlimit:4;stroke-opacity:1;stroke-dasharray:none"
       d="m 157.67017,352.45475 c 10.58559,96.07708 10.58559,96.07708 10.58559,96.07708 l 0,0"
       id="path3877-9"
       inkscape:connector-curvature="0"
       inkscape:export-filename="/tmp/flowtime-logo.png"
       inkscape:export-xdpi="90"
       inkscape:export-ydpi="90" />
    <path
       style="fill:none;stroke:#800080;stroke-width:16.52724648;stroke-linecap:round;stroke-linejoin:miter;stroke-miterlimit:4;stroke-opacity:1;stroke-dasharray:none"
       d="m 128.80121,608.19328 c 148.48555,27.45271 264.80357,-74.63668 308.51543,-39.12121 19.22582,18.79457 29.08096,48.92714 67.20098,47.9642 30.28085,-0.76492 56.44461,-11.92817 87.05375,-3.10697 30.60914,8.82119 26.60497,-73.84488 -72.36879,-100.73275 C 376.88553,489.55435 336.10194,586.76683 224.21272,605.58586 129.83884,629.75384 43.972171,580.47457 22.174623,498.42575 0.37707488,416.37693 50.90293,332.62879 135.02728,311.36903 c 34.34325,-8.67917 70.6859,-5.78405 103.12998,8.21548"
       id="path3788"
       inkscape:connector-curvature="0"
       sodipodi:nodetypes="ccszccssc"
       inkscape:export-filename="/tmp/flowtime-logo.png"
       inkscape:export-xdpi="90"
       inkscape:export-ydpi="90" />
    <g
       transform="scale(0.81690497,1.2241326)"
       style="font-size:48.96530533px;font-style:normal;font-variant:normal;font-weight:normal;font-stretch:normal;line-height:125%;letter-spacing:0px;word-spacing:0px;fill:#800080;fill-opacity:1;stroke:none;font-family:DejaVu Sans;-inkscape-font-specification:DejaVu Sans"
       id="text3755"
       inkscape:export-filename="/tmp/flowtime-logo.png"
       inkscape:export-xdpi="90"
       inkscape:export-ydpi="90">
      <path
         style="font-size:117.51673126px;font-style:oblique;font-weight:bold;fill:#800080;-inkscape-font-specification:DejaVu Sans Bold Oblique"
         d="m 216.38669,292.3899 c 19.8539,0 39.7078,0 59.5617,0 6.07713,26.66823 -50.46229,6.37152 -36.95272,31.18569 9.02036,1.03134 37.43473,3.53944 20.61596,15.10675 -20.06813,-0.58911 -41.70811,12.44098 -36.14053,33.91946 -12.6267,17.37894 -33.7885,-8.3561 -18.60742,-20.85576 3.80507,-19.79233 7.64904,-39.57718 11.52301,-59.35614 z"
         id="path3804"
         inkscape:connector-curvature="0" />
      <path
         style="font-size:117.51673126px;font-style:oblique;font-weight:bold;fill:#800080;-inkscape-font-specification:DejaVu Sans Bold Oblique"
         d="m 298.49921,288.77489 c 6.88574,0 13.77149,0 20.65723,0 -5.7955,29.76172 -11.59101,59.52345 -17.38651,89.28517 -6.86662,0 -13.73323,0 -20.59985,0 5.77638,-29.76172 11.55275,-59.52345 17.32913,-89.28517 z"
         id="path3806"
         inkscape:connector-curvature="0" />
      <path
         style="font-size:117.51673126px;font-style:oblique;font-weight:bold;fill:#800080;-inkscape-font-specification:DejaVu Sans Bold Oblique"
         d="m 362.02021,326.93339 c -26.57406,-5.94465 -19.7488,49.77889 4.04695,32.36074 9.26672,-8.19309 11.46483,-29.72242 -4.04695,-32.36074 z m 1.66406,-14.68959 c 24.81478,-4.08384 41.4744,31.67969 24.55957,49.21759 -12.71764,22.89567 -53.48901,25.91521 -64.5585,-2.7e-4 -7.5914,-24.13416 15.07424,-51.25087 39.99893,-49.21732 z"
         id="path3808"
         inkscape:connector-curvature="0" />
      <path
         style="font-size:117.51673126px;font-style:oblique;font-weight:bold;fill:#800080;-inkscape-font-specification:DejaVu Sans Bold Oblique"
         d="m 408.95804,313.7931 c 6.31193,0 12.62387,0 18.9358,0 0.74596,14.72784 1.49191,29.45569 2.23787,44.18353 6.46495,-14.72784 12.9299,-29.45569 19.39485,-44.18353 24.28565,-9.60244 11.05629,37.35657 24.05335,32.99946 2.80585,-14.25121 16.57621,-45.03242 32.37375,-29.26651 -9.23439,20.11163 -18.43866,40.36136 -27.67911,60.53401 -7.26829,0 -14.53657,0 -21.80486,0 -0.7077,-14.72785 -1.4154,-29.45569 -2.1231,-44.18354 -6.54146,14.72785 -13.08292,29.45569 -19.62438,44.18354 -7.09614,0 -14.19229,0 -21.28843,0 -1.49191,-21.42232 -2.98383,-42.84464 -4.47574,-64.26696 z"
         id="path3810"
         inkscape:connector-curvature="0" />
      <path
         style="font-size:117.51673126px;font-style:oblique;font-weight:bold;fill:#800080;-inkscape-font-specification:DejaVu Sans Bold Oblique"
         d="m 516.26093,292.3899 c 26.31885,0 52.63771,0 78.95656,0 -2.38598,23.56926 -48.22268,15.36586 -37.77101,45.15994 2.07634,15.65255 -7.92932,50.98417 -27.52884,36.74784 -1.3048,-13.80717 5.47056,-26.77998 6.65747,-40.45685 1.60626,-8.251 3.21253,-16.50199 4.8188,-24.75299 -9.48703,0 -18.97406,0 -28.46109,0 1.10937,-5.56598 2.21874,-11.13196 3.32811,-16.69794 z"
         id="path3812"
         inkscape:connector-curvature="0" />
      <path
         style="font-size:117.51673126px;font-style:oblique;font-weight:bold;fill:#800080;-inkscape-font-specification:DejaVu Sans Bold Oblique"
         d="m 603.53774,313.7931 c 6.88575,0 13.77149,0 20.65724,0 -4.18883,21.42232 -8.37766,42.84464 -12.56649,64.26696 -6.86662,0 -13.73323,0 -20.59985,0 4.1697,-21.42232 8.3394,-42.84464 12.5091,-64.26696 z m 4.82002,-25.01821 c 6.88575,0 13.77149,0 20.65724,0 10.32161,20.90061 -35.59119,21.46617 -20.65724,0 z"
         id="path3814"
         inkscape:connector-curvature="0" />
      <path
         style="font-size:117.51673126px;font-style:oblique;font-weight:bold;fill:#800080;-inkscape-font-specification:DejaVu Sans Bold Oblique"
         d="m 701.48749,324.466 c 9.45749,-24.05491 51.18872,-7.45593 42.18718,16.75634 3.91171,14.9969 -18.97169,49.11951 -26.22284,27.49011 11.27305,-12.43539 -2.48566,-50.85103 -16.11324,-26.76952 0.58655,13.36047 -13.2244,48.68146 -26.0154,26.91784 4.16948,-12.03152 8.41978,-47.05263 -13.17165,-32.27242 -8.75339,12.2244 -2.05184,45.61202 -25.26334,39.49766 -7.5433,-19.4438 3.93486,-43.14382 9.61823,-59.8028 16.68756,-4.43751 36.19383,-0.91168 52.11676,-1.88201 2.48343,2.72914 2.80333,6.58006 2.8643,10.0648 z"
         id="path3816"
         inkscape:connector-curvature="0" />
      <path
         style="font-size:117.51673126px;font-style:oblique;font-weight:bold;fill:#800080;-inkscape-font-specification:DejaVu Sans Bold Oblique"
         d="m 824.28327,348.33659 c -11.53131,12.33803 -44.18818,-9.38707 -42.90529,15.72081 9.32417,3.0813 42.96116,-5.50942 26.67632,12.80017 -19.71137,10.68635 -52.13167,0.83934 -53.54183,-24.161 -1.71281,-29.80067 38.64991,-53.72476 62.43276,-33.48419 7.96539,6.9886 11.82223,19.17905 7.33801,29.12421 m -19.39485,-9.41052 c 10.27366,-22.42127 -35.83099,-1.74893 -8.7649,0 2.92163,0 5.84327,0 8.7649,0 z"
         id="path3818"
         inkscape:connector-curvature="0" />
    </g>
    <text
       xml:space="preserve"
       style="font-size:40px;font-style:oblique;font-variant:normal;font-weight:normal;font-stretch:normal;line-height:125%;letter-spacing:0px;word-spacing:0px;fill:#000000;fill-opacity:1;stroke:none;font-family:DejaVu Sans;-inkscape-font-specification:DejaVu Sans Oblique"
       x="35.185184"
       y="467.177"
       id="text3869"
       sodipodi:linespacing="125%"
       inkscape:export-filename="/tmp/flowtime-logo.png"
       inkscape:export-xdpi="90"
       inkscape:export-ydpi="90"><tspan
         sodipodi:role="line"
         id="tspan3871"
         x="35.185184"
         y="467.177">9</tspan></text>
    <g
       id="g3904"
       transform="translate(-14.814815,7.4074074)"
       inkscape:export-filename="/tmp/flowtime-logo.png"
       inkscape:export-xdpi="90"
       inkscape:export-ydpi="90">
      <path
         sodipodi:nodetypes="csscsc"
         inkscape:connector-curvature="0"
         id="path3900"
         d="M 537.42505,573.92789 C 565.54924,473.24937 551.22638,423.4141 548.3286,415.58091 535.77472,381.6455 498.29311,530.9464 510.07913,539.15874 c 10.8013,7.5262 45.08403,-6.51953 45.08403,-6.51953 0,0 -5.74758,-9.71391 -8.94957,-6.96612 -5.67295,4.86823 -8.78854,48.2548 -8.78854,48.2548 z"
         style="fill:#ffdd55;stroke:#ffdd55;stroke-width:0.37975687px;stroke-linecap:butt;stroke-linejoin:miter;stroke-opacity:1" />
      <path
         transform="matrix(0.28295833,0.1932797,-0.15288607,0.45734617,403.61442,369.3216)"
         d="m 653.70367,182.91774 c 0,20.96637 -55.9644,37.96296 -125,37.96296 -69.03559,0 -125,-16.99659 -125,-37.96296 0,-20.96637 55.96441,-37.96296 125,-37.96296 69.0356,0 125,16.99659 125,37.96296 z"
         sodipodi:ry="37.962963"
         sodipodi:rx="125"
         sodipodi:cy="182.91774"
         sodipodi:cx="528.70367"
         id="path3898"
         style="fill:#ffdd55;stroke:#ffdd55;stroke-width:9.39999962;stroke-linecap:round;stroke-miterlimit:4;stroke-opacity:1;stroke-dasharray:none"
         sodipodi:type="arc" />
    </g>
  </g>
</svg>
