<?xml version="1.0" encoding="UTF-8" standalone="no"?>
<!-- Created with Inkscape (http://www.inkscape.org/) -->

<svg
   xmlns:dc="http://purl.org/dc/elements/1.1/"
   xmlns:cc="http://creativecommons.org/ns#"
   xmlns:rdf="http://www.w3.org/1999/02/22-rdf-syntax-ns#"
   xmlns:svg="http://www.w3.org/2000/svg"
   xmlns="http://www.w3.org/2000/svg"
   xmlns:sodipodi="http://sodipodi.sourceforge.net/DTD/sodipodi-0.dtd"
   xmlns:inkscape="http://www.inkscape.org/namespaces/inkscape"
   width="210mm"
   height="297mm"
   id="svg2"
   version="1.1"
   inkscape:version="0.48.5 r10040"
   sodipodi:docname="logo2.svg"
   inkscape:export-filename="/home/floh/D/programing/flowtime/site/logo/flowtime-logo-einfacher.png"
   inkscape:export-xdpi="90"
   inkscape:export-ydpi="90">
  <defs
     id="defs4">
    <filter
       inkscape:collect="always"
       id="filter3860">
      <feGaussianBlur
         inkscape:collect="always"
         stdDeviation="1.6666085"
         id="feGaussianBlur3862" />
    </filter>
    <filter
       inkscape:collect="always"
       id="filter3864"
       x="-0.089329828"
       width="1.1786597"
       y="-0.18274194"
       height="1.3654839">
      <feGaussianBlur
         inkscape:collect="always"
         stdDeviation="5.0919675"
         id="feGaussianBlur3866" />
    </filter>
  </defs>
  <sodipodi:namedview
     id="base"
     pagecolor="#ffffff"
     bordercolor="#666666"
     borderopacity="1.0"
     inkscape:pageopacity="0.0"
     inkscape:pageshadow="2"
     inkscape:zoom="0.41799165"
     inkscape:cx="640.39872"
     inkscape:cy="719.27302"
     inkscape:document-units="px"
     inkscape:current-layer="layer1"
     showgrid="false"
     inkscape:window-width="1189"
     inkscape:window-height="719"
     inkscape:window-x="39"
     inkscape:window-y="54"
     inkscape:window-maximized="0"
     showguides="true"
     inkscape:guide-bbox="true" />
  <metadata
     id="metadata7">
    <rdf:RDF>
      <cc:Work
         rdf:about="">
        <dc:format>image/svg+xml</dc:format>
        <dc:type
           rdf:resource="http://purl.org/dc/dcmitype/StillImage" />
        <dc:title></dc:title>
      </cc:Work>
    </rdf:RDF>
  </metadata>
  <g
     inkscape:label="Ebene 1"
     inkscape:groupmode="layer"
     id="layer1">
    <rect
       style="fill:none;stroke:none"
       id="rect2996"
       width="622.03638"
       height="348.52942"
       x="13.959842"
       y="214.12689"
       inkscape:export-filename="/home/floh/flowtime/site/logo/flowtimgr.png"
       inkscape:export-xdpi="90"
       inkscape:export-ydpi="90" />
    <g
       transform="matrix(2.2839673,0,0,4.385667,-442.96493,-1003.2151)"
       style="font-size:40px;font-style:italic;font-variant:normal;font-weight:bold;font-stretch:normal;line-height:125%;letter-spacing:0px;word-spacing:0px;fill:#c8b7b7;fill-opacity:1;stroke:#c6c6c6;stroke-width:1.57981865;stroke-miterlimit:4;stroke-opacity:1;stroke-dasharray:none;filter:url(#filter3860);font-family:GentiumAlt;-inkscape-font-specification:GentiumAlt Bold Italic"
       id="flowRoot3006-5">
      <path
         d="m 297.25,290.7881 c -0.0781,0.40627 -0.17971,0.85159 -0.30469,1.33593 -0.10939,0.48441 -0.24221,0.96878 -0.39844,1.45313 -0.14064,0.4844 -0.28908,0.94534 -0.44531,1.38281 -0.15627,0.43752 -0.29689,0.80471 -0.42187,1.10156 l -0.96094,0 c 0.0625,-0.71872 0.0781,-1.31247 0.0469,-1.78125 -0.0313,-0.48435 -0.10158,-0.86716 -0.21093,-1.14843 -0.1094,-0.29685 -0.25783,-0.49998 -0.44532,-0.60938 -0.18751,-0.12497 -0.42189,-0.18747 -0.70312,-0.1875 l -8.03906,0 -1.40625,10.17188 7.57031,0 0.53906,0.65625 c -0.17189,0.21876 -0.35939,0.44532 -0.5625,0.67968 -0.18751,0.23439 -0.38283,0.46877 -0.58594,0.70313 -0.20314,0.21876 -0.40626,0.4297 -0.60937,0.63281 -0.20314,0.18752 -0.38283,0.35158 -0.53906,0.49219 -0.53127,-0.53124 -1.14845,-0.87499 -1.85157,-1.03125 -0.68751,-0.17186 -1.54688,-0.2578 -2.57812,-0.25781 l -1.64063,0 -1.75781,12.91406 c -0.0312,0.1875 0.21875,0.39844 0.75,0.63281 0.53124,0.23438 1.47656,0.5 2.83594,0.79688 l -0.14063,1.00781 -10.26562,0 0.14062,-1.00781 c 0.98438,-0.21875 1.77344,-0.45313 2.36719,-0.70313 0.59375,-0.26562 0.90625,-0.50781 0.9375,-0.72656 l 3.42188,-24.63281 c 0.0312,-0.18748 -0.19532,-0.42185 -0.67969,-0.70313 -0.48438,-0.28122 -1.23438,-0.53122 -2.25,-0.75 l 0.14062,-1.00781 17.48438,0 0.5625,0.58594"
         style="font-size:48px;fill:#c8b7b7;stroke:#c6c6c6;stroke-width:1.57981865;stroke-miterlimit:4;stroke-opacity:1;stroke-dasharray:none;font-family:Gentium;-inkscape-font-specification:Gentium Bold Italic"
         id="path3015-4"
         inkscape:connector-curvature="0" />
      <path
         d="m 306.25,318.04591 c -0.76563,0.48437 -1.44532,0.89844 -2.03906,1.24219 -0.57814,0.32812 -1.10938,0.59375 -1.59375,0.79687 -0.46876,0.21875 -0.90626,0.375 -1.3125,0.46875 -0.40626,0.0937 -0.80469,0.14062 -1.19532,0.14063 -0.4375,-10e-6 -0.82812,-0.23438 -1.17187,-0.70313 -0.34375,-0.46875 -0.51563,-1.16406 -0.51563,-2.08594 0,-0.39062 0.0547,-1.05468 0.16407,-1.99218 0.12499,-0.9375 0.28124,-2.05469 0.46875,-3.35157 0.18749,-1.29686 0.39843,-2.71874 0.63281,-4.26562 0.25,-1.56249 0.5,-3.15624 0.75,-4.78125 0.25,-1.62498 0.49218,-3.23436 0.72656,-4.82813 0.25,-1.59372 0.46875,-3.0781 0.65625,-4.45312 0.1875,-1.37497 0.33593,-2.58591 0.44531,-3.63281 0.125,-1.06247 0.1875,-1.86716 0.1875,-2.41407 0,-0.35934 -0.0391,-0.64059 -0.11718,-0.84375 -0.0625,-0.21871 -0.14845,-0.37496 -0.25782,-0.46875 -0.10938,-0.10934 -0.24219,-0.17965 -0.39843,-0.21093 -0.14063,-0.0312 -0.28126,-0.0469 -0.42188,-0.0469 -0.125,3e-5 -0.32813,0.0313 -0.60937,0.0937 -0.26563,0.0625 -0.53907,0.14066 -0.82032,0.23438 -0.26562,0.0781 -0.5,0.14847 -0.70312,0.21093 -0.20313,0.0625 -0.30469,0.0938 -0.30469,0.0937 l -0.35156,-0.91406 c 0.65625,-0.29684 1.3125,-0.57809 1.96875,-0.84375 0.67187,-0.26559 1.28906,-0.49996 1.85156,-0.70312 0.57812,-0.20309 1.08593,-0.36716 1.52344,-0.49219 0.43749,-0.12497 0.7578,-0.18747 0.96094,-0.1875 0.43749,3e-5 0.78124,0.14066 1.03125,0.42187 0.26561,0.28129 0.39842,0.78129 0.39843,1.5 -1e-5,0.60941 -0.0625,1.45316 -0.1875,2.53125 -0.10938,1.07816 -0.25782,2.31253 -0.44531,3.70313 -0.18751,1.37502 -0.40626,2.8594 -0.65625,4.45312 -0.25001,1.57815 -0.50001,3.17971 -0.75,4.80469 -0.25001,1.62502 -0.50001,3.22658 -0.75,4.80469 -0.25,1.56251 -0.46875,3.01563 -0.65625,4.35937 -0.1875,1.34376 -0.34375,2.53126 -0.46875,3.5625 -0.10938,1.01563 -0.16407,1.78907 -0.16406,2.32032 -10e-6,0.53125 0.0703,0.89844 0.21094,1.10156 0.15624,0.1875 0.35937,0.28125 0.60937,0.28125 0.35937,0 0.77343,-0.0625 1.24219,-0.1875 0.48437,-0.125 1.07812,-0.32031 1.78125,-0.58594 l 0.28125,0.86719 0,0"
         style="font-size:48px;fill:#c8b7b7;stroke:#c6c6c6;stroke-width:1.57981865;stroke-miterlimit:4;stroke-opacity:1;stroke-dasharray:none;font-family:Gentium;-inkscape-font-specification:Gentium Bold Italic"
         id="path3017-7"
         inkscape:connector-curvature="0" />
      <path
         d="m 322.9375,307.92091 c -2e-5,-2.39061 -0.43752,-4.21874 -1.3125,-5.48438 -0.87501,-1.2656 -2.1172,-1.89842 -3.72656,-1.89843 -1.12501,1e-5 -2.07032,0.32814 -2.83594,0.98437 -0.76563,0.64064 -1.38282,1.45314 -1.85156,2.4375 -0.46876,0.98439 -0.8047,2.0547 -1.00782,3.21094 -0.20312,1.14063 -0.30469,2.21095 -0.30468,3.21094 -10e-6,1.04688 0.12499,2.03907 0.375,2.97656 0.26562,0.92188 0.62499,1.73438 1.07812,2.4375 0.46875,0.6875 1.00781,1.23438 1.61719,1.64062 0.62499,0.40626 1.29687,0.60938 2.01562,0.60938 0.71874,0 1.35937,-0.15625 1.92188,-0.46875 0.57811,-0.32812 1.08592,-0.75781 1.52344,-1.28906 0.45311,-0.54688 0.83592,-1.16406 1.14843,-1.85157 0.31249,-0.70312 0.5703,-1.42968 0.77344,-2.17968 0.20311,-0.75 0.35155,-1.5 0.44531,-2.25 0.0937,-0.74999 0.14061,-1.44531 0.14063,-2.08594 m 3.35156,-1.28906 c -2e-5,1.04688 -0.1172,2.10938 -0.35156,3.1875 -0.23439,1.0625 -0.57814,2.10157 -1.03125,3.11718 -0.45314,1.00001 -1.01564,1.96095 -1.6875,2.88282 -0.65627,0.90625 -1.42189,1.71875 -2.29688,2.4375 -0.40626,0.32812 -0.83595,0.64062 -1.28906,0.9375 -0.45313,0.29687 -0.91407,0.55468 -1.38281,0.77343 -0.46876,0.23438 -0.94532,0.41407 -1.42969,0.53907 -0.48438,0.12499 -0.96094,0.18749 -1.42969,0.1875 -1.09375,-10e-6 -2.07031,-0.23438 -2.92968,-0.70313 -0.84376,-0.45312 -1.56251,-1.07812 -2.15625,-1.875 -0.57813,-0.8125 -1.02344,-1.76562 -1.33594,-2.85937 -0.29688,-1.10937 -0.44531,-2.30469 -0.44531,-3.58594 0,-1.12499 0.0937,-2.20312 0.28125,-3.23438 0.1875,-1.04686 0.49218,-2.05467 0.91406,-3.02343 0.42187,-0.96874 0.98437,-1.89843 1.6875,-2.78907 0.70312,-0.8906 1.57031,-1.74998 2.60156,-2.57812 0.79687,-0.62498 1.67187,-1.15623 2.625,-1.59375 0.95312,-0.43748 1.91405,-0.65623 2.88281,-0.65625 1.21874,2e-5 2.2578,0.21877 3.11719,0.65625 0.85936,0.43752 1.55467,1.04689 2.08594,1.82812 0.54686,0.78127 0.94529,1.71096 1.19531,2.78907 0.24998,1.07814 0.37498,2.26564 0.375,3.5625"
         style="font-size:48px;fill:#c8b7b7;stroke:#c6c6c6;stroke-width:1.57981865;stroke-miterlimit:4;stroke-opacity:1;stroke-dasharray:none;font-family:Gentium;-inkscape-font-specification:Gentium Bold Italic"
         id="path3019-9"
         inkscape:connector-curvature="0" />
      <path
         d="m 356.875,299.57716 c -3e-5,0.40627 -0.0391,0.89064 -0.11719,1.45312 -0.0781,0.5469 -0.22659,1.20315 -0.44531,1.96875 -0.20315,0.76564 -0.49222,1.66408 -0.86719,2.69532 -0.37503,1.01563 -0.86721,2.20313 -1.47656,3.5625 -0.59378,1.34375 -1.32034,2.875 -2.17969,4.59375 -0.84377,1.71875 -1.85158,3.66406 -3.02344,5.83593 -0.14064,0.0781 -0.3047,0.15625 -0.49218,0.23438 -0.1719,0.0937 -0.3594,0.17969 -0.5625,0.25781 -0.20315,0.0937 -0.39846,0.1875 -0.58594,0.28125 -0.18752,0.0937 -0.35939,0.17187 -0.51563,0.23438 l -0.77343,-0.72657 c -0.1094,-0.875 -0.2344,-1.82031 -0.375,-2.83593 -0.12502,-1.03125 -0.26565,-2.07031 -0.42188,-3.11719 -0.14064,-1.0625 -0.28908,-2.10937 -0.44531,-3.14063 -0.15627,-1.04686 -0.31252,-2.03124 -0.46875,-2.95312 -0.15627,-0.92186 -0.31252,-1.7578 -0.46875,-2.50781 -0.14064,-0.74999 -0.28127,-1.36718 -0.42188,-1.85157 -0.0156,0.32814 -0.1172,0.82814 -0.30468,1.5 -0.18752,0.65627 -0.43752,1.4297 -0.75,2.32032 -0.31252,0.89063 -0.6797,1.85157 -1.10157,2.88281 -0.42188,1.03126 -0.87501,2.08594 -1.35937,3.16406 -0.48439,1.07813 -0.9922,2.14063 -1.52344,3.1875 -0.51563,1.03125 -1.03907,1.99219 -1.57031,2.88281 -0.14063,0.0781 -0.31251,0.16407 -0.51563,0.25782 -0.1875,0.10937 -0.39063,0.21875 -0.60937,0.32812 -0.21876,0.125 -0.43751,0.24219 -0.65625,0.35156 -0.20313,0.10938 -0.38282,0.19531 -0.53906,0.25782 l -0.75,-0.72657 c -0.10938,-0.875 -0.22657,-1.84375 -0.35157,-2.90625 -0.10938,-1.07812 -0.22656,-2.17968 -0.35156,-3.30468 -0.10938,-1.14062 -0.22657,-2.28125 -0.35156,-3.42188 -0.12501,-1.14061 -0.25001,-2.21874 -0.375,-3.23437 -0.12501,-1.01562 -0.25782,-1.93749 -0.39844,-2.76563 -0.125,-0.84373 -0.25781,-1.53123 -0.39844,-2.0625 -0.0937,-0.42186 -0.21094,-0.75779 -0.35156,-1.00781 -0.125,-0.24998 -0.26563,-0.4453 -0.42187,-0.58594 -0.14063,-0.14061 -0.28907,-0.22654 -0.44532,-0.25781 -0.15625,-0.0469 -0.30469,-0.0703 -0.44531,-0.0703 -0.14063,2e-5 -0.34375,0.0313 -0.60937,0.0937 -0.25,0.0625 -0.50782,0.13283 -0.77344,0.21093 -0.25,0.0625 -0.46875,0.12502 -0.65625,0.1875 -0.1875,0.0469 -0.28125,0.0703 -0.28125,0.0703 l -0.32813,-0.86719 c 0.65625,-0.29686 1.28125,-0.57811 1.875,-0.84375 0.59375,-0.28123 1.13281,-0.52342 1.61719,-0.72656 0.48437,-0.20311 0.90625,-0.36717 1.26563,-0.49219 0.37499,-0.12498 0.66405,-0.18748 0.86718,-0.1875 0.4375,2e-5 0.76562,0.25783 0.98438,0.77344 0.21874,0.50002 0.46093,1.31252 0.72656,2.4375 0.0937,0.43751 0.20312,1.0547 0.32813,1.85156 0.12499,0.78126 0.24999,1.65626 0.375,2.625 0.14061,0.96876 0.27343,1.98439 0.39843,3.04687 0.125,1.04689 0.24218,2.04689 0.35157,3 0.10936,0.95314 0.1953,1.81251 0.25781,2.57813 0.0781,0.76563 0.1328,1.34375 0.16406,1.73437 0.62499,-1.21874 1.26562,-2.54687 1.92188,-3.98437 0.65624,-1.45312 1.2578,-2.91405 1.80468,-4.38281 0.54687,-1.46874 0.99999,-2.89061 1.35938,-4.26563 0.37499,-1.39061 0.60155,-2.63279 0.67969,-3.72656 0.23436,-0.20311 0.48436,-0.40623 0.75,-0.60938 0.28123,-0.2031 0.55467,-0.38279 0.82031,-0.53906 0.28123,-0.15623 0.53905,-0.28123 0.77344,-0.375 0.24998,-0.10935 0.46092,-0.16404 0.63281,-0.16406 0.0625,2e-5 0.14061,0.13283 0.23437,0.39844 0.0937,0.25002 0.1953,0.58595 0.30469,1.00781 0.10936,0.42189 0.21873,0.91408 0.32813,1.47656 0.12498,0.54689 0.24217,1.10939 0.35156,1.6875 0.10936,0.57814 0.21873,1.15627 0.32812,1.73438 0.10936,0.57814 0.20311,1.10157 0.28125,1.57031 0.10936,0.73439 0.23436,1.54689 0.375,2.4375 0.15623,0.89063 0.30467,1.8047 0.44532,2.74219 0.15623,0.9375 0.29685,1.875 0.42187,2.8125 0.14061,0.9375 0.24998,1.8125 0.32813,2.625 1.17185,-2.15625 2.12497,-4.05468 2.85937,-5.69532 0.74998,-1.64061 1.3281,-3.0703 1.73438,-4.28906 0.42185,-1.23436 0.7031,-2.27342 0.84375,-3.11719 0.15622,-0.85935 0.23435,-1.58592 0.23437,-2.17968 -2e-5,-0.32811 -0.11721,-0.58592 -0.35156,-0.77344 -0.21878,-0.18748 -0.53128,-0.28123 -0.9375,-0.28125 -0.21878,2e-5 -0.4844,0.0313 -0.79688,0.0937 -0.31252,0.0625 -0.64064,0.14846 -0.98437,0.25781 l -0.42188,-0.86719 c 0.53123,-0.31248 1.03904,-0.57029 1.52344,-0.77343 0.48435,-0.21873 0.91404,-0.39061 1.28906,-0.51563 0.3906,-0.12498 0.71873,-0.21092 0.98438,-0.25781 0.2656,-0.0625 0.4531,-0.0937 0.5625,-0.0937 0.2656,2e-5 0.5156,0.0235 0.75,0.0703 0.23435,0.0313 0.43747,0.1094 0.60937,0.23438 0.18748,0.12502 0.33591,0.3047 0.44532,0.53906 0.10934,0.23439 0.16403,0.54689 0.16406,0.9375"
         style="font-size:48px;fill:#c8b7b7;stroke:#c6c6c6;stroke-width:1.57981865;stroke-miterlimit:4;stroke-opacity:1;stroke-dasharray:none;font-family:Gentium;-inkscape-font-specification:Gentium Bold Italic"
         id="path3021-0"
         inkscape:connector-curvature="0" />
      <path
         d="m 383.45312,290.7881 c -0.0625,0.37502 -0.14065,0.80471 -0.23437,1.28906 -0.0938,0.46878 -0.20315,0.95315 -0.32813,1.45312 -0.12502,0.50003 -0.25783,0.99222 -0.39843,1.47657 -0.12503,0.48439 -0.25003,0.92189 -0.375,1.3125 l -0.96094,0 c -0.0313,-0.78123 -0.0781,-1.42967 -0.14063,-1.94532 -0.0625,-0.5156 -0.15627,-0.92185 -0.28125,-1.21875 -0.10939,-0.31247 -0.26564,-0.52341 -0.46875,-0.63281 -0.18752,-0.12497 -0.43752,-0.18747 -0.75,-0.1875 l -6.02343,0 -3.375,24.70313 c -0.0313,0.20312 0.1953,0.46094 0.67968,0.77343 0.48437,0.3125 1.35937,0.61719 2.625,0.91407 l -0.14062,1.00781 -10.45313,0 0.14063,-1.00781 c 1.34374,-0.29688 2.28905,-0.59375 2.83594,-0.89063 0.56249,-0.3125 0.85936,-0.57812 0.89062,-0.79687 l 3.44531,-24.70313 -6.35156,0 c -0.20313,3e-5 -0.39844,0.0469 -0.58594,0.14063 -0.17188,0.0781 -0.36719,0.25784 -0.58593,0.53906 -0.21876,0.28127 -0.47657,0.69534 -0.77344,1.24219 -0.29688,0.53127 -0.65625,1.25002 -1.07813,2.15625 l -0.86718,-0.44532 c 0.0469,-0.40622 0.11718,-0.85935 0.21093,-1.35937 0.10938,-0.5156 0.22656,-1.03123 0.35157,-1.54688 0.14062,-0.53122 0.28124,-1.03903 0.42187,-1.52343 0.15625,-0.49998 0.30469,-0.94529 0.44531,-1.33594 l 21.60938,0 0.51562,0.58594 0,0"
         style="font-size:48px;fill:#c8b7b7;stroke:#c6c6c6;stroke-width:1.57981865;stroke-miterlimit:4;stroke-opacity:1;stroke-dasharray:none;font-family:Gentium;-inkscape-font-specification:Gentium Bold Italic"
         id="path3023-7"
         inkscape:connector-curvature="0" />
      <path
         d="m 393.57812,290.15528 c -1e-5,0.43753 -0.0703,0.87503 -0.21093,1.3125 -0.12501,0.42191 -0.31251,0.81253 -0.5625,1.17188 -0.25001,0.34377 -0.5547,0.62502 -0.91407,0.84375 -0.35938,0.21877 -0.75782,0.32815 -1.19531,0.32812 -0.48438,3e-5 -0.85938,-0.1406 -1.125,-0.42187 -0.26563,-0.28123 -0.39844,-0.68747 -0.39844,-1.21875 0,-0.42185 0.0703,-0.84372 0.21094,-1.26563 0.14062,-0.43747 0.33593,-0.8359 0.58594,-1.19531 0.24999,-0.35934 0.54687,-0.64841 0.89062,-0.86719 0.35937,-0.23434 0.75781,-0.35153 1.19532,-0.35156 0.48436,3e-5 0.85936,0.14847 1.125,0.44531 0.26561,0.28128 0.39842,0.68753 0.39843,1.21875 m -0.63281,27.89063 c -0.73438,0.4375 -1.39844,0.82031 -1.99219,1.14844 -0.57813,0.32812 -1.10938,0.60156 -1.59375,0.82031 -0.48438,0.23437 -0.92188,0.40625 -1.3125,0.51562 -0.39063,0.10938 -0.75781,0.16406 -1.10156,0.16407 -0.53125,-10e-6 -0.95313,-0.25001 -1.26562,-0.75 -0.31251,-0.48438 -0.46876,-1.14844 -0.46875,-1.99219 -10e-6,-0.46875 0.0547,-1.13281 0.16406,-1.99219 0.125,-0.87499 0.27343,-1.83593 0.44531,-2.88281 0.17187,-1.06249 0.35937,-2.16406 0.5625,-3.30469 0.20312,-1.15624 0.39062,-2.24999 0.5625,-3.28125 0.17187,-1.04686 0.3125,-1.96873 0.42188,-2.76562 0.12499,-0.81249 0.18749,-1.41405 0.1875,-1.80469 -10e-6,-0.35936 -0.0234,-0.64061 -0.0703,-0.84375 -0.0469,-0.21873 -0.10938,-0.37498 -0.1875,-0.46875 -0.0781,-0.10936 -0.17969,-0.17967 -0.30468,-0.21094 -0.12501,-0.0312 -0.25782,-0.0469 -0.39844,-0.0469 -0.125,2e-5 -0.32032,0.0313 -0.58594,0.0937 -0.26563,0.0625 -0.53125,0.13283 -0.79687,0.21093 -0.25001,0.0625 -0.47657,0.12502 -0.67969,0.1875 -0.1875,0.0469 -0.28125,0.0703 -0.28125,0.0703 l -0.32813,-0.86719 c 0.65625,-0.29686 1.30469,-0.57811 1.94532,-0.84375 0.65624,-0.28123 1.26562,-0.52342 1.82812,-0.72656 0.5625,-0.20311 1.05468,-0.36717 1.47656,-0.49219 0.42187,-0.12498 0.73437,-0.18748 0.9375,-0.1875 0.4375,2e-5 0.74218,0.14846 0.91407,0.44531 0.18749,0.2969 0.28124,0.80471 0.28125,1.52344 -10e-6,0.45314 -0.0625,1.12502 -0.1875,2.01562 -0.10939,0.87502 -0.25782,1.85939 -0.44532,2.95313 -0.1875,1.09376 -0.38282,2.2422 -0.58593,3.44531 -0.20314,1.18751 -0.39845,2.32813 -0.58594,3.42188 -0.18751,1.09375 -0.34376,2.08594 -0.46875,2.97656 -0.10938,0.875 -0.16407,1.53906 -0.16406,1.99219 -10e-6,0.48437 0.0469,0.83594 0.14062,1.05468 0.10937,0.21876 0.29687,0.32813 0.5625,0.32813 0.48437,0 0.94531,-0.0625 1.38281,-0.1875 0.45312,-0.125 1,-0.32031 1.64063,-0.58594 l 0.35156,0.86719 0,0"
         style="font-size:48px;fill:#c8b7b7;stroke:#c6c6c6;stroke-width:1.57981865;stroke-miterlimit:4;stroke-opacity:1;stroke-dasharray:none;font-family:Gentium;-inkscape-font-specification:Gentium Bold Italic"
         id="path3025-7"
         inkscape:connector-curvature="0" />
      <path
         d="m 430,291.20997 c -0.42191,3e-5 -0.90629,0.0781 -1.45313,0.23438 -0.5469,0.14065 -1.10159,0.35159 -1.66406,0.63281 l -2.83594,25.21875 c -0.0313,0.1875 0.21091,0.42188 0.72657,0.70312 0.51559,0.26563 1.28122,0.50782 2.29687,0.72657 l -0.14062,1.00781 -9.60938,0 0.14063,-1.00781 c 0.98435,-0.21875 1.78903,-0.45313 2.41406,-0.70313 0.6406,-0.26562 0.97654,-0.50781 1.00781,-0.72656 l 2.53125,-22.35938 c -0.0469,0.0781 -0.0938,0.14847 -0.14062,0.21094 -0.0313,0.0625 -0.0625,0.13284 -0.0937,0.21094 l -12.42188,24.375 -0.96094,0 -6.51562,-24.53906 -3.1875,22.10156 c -0.0313,0.1875 0.18749,0.42188 0.65625,0.70312 0.46874,0.26563 1.21093,0.50782 2.22656,0.72657 l -0.14062,1.00781 -8.64844,0 0.14062,-1.00781 c 1.01563,-0.21875 1.80469,-0.45313 2.36719,-0.70313 0.57812,-0.26562 0.88281,-0.50781 0.91406,-0.72656 l 3.65625,-25.19531 c -0.48438,-0.3281 -0.99219,-0.55466 -1.52343,-0.67969 -0.51563,-0.1406 -0.97657,-0.21091 -1.38282,-0.21094 l 0.14063,-1.00781 6.21094,0 c 0.12499,3e-5 0.22655,0.0235 0.30468,0.0703 0.0937,0.0469 0.17187,0.14065 0.23438,0.28125 0.0781,0.14065 0.15624,0.34378 0.23437,0.60938 0.0781,0.25002 0.17187,0.58596 0.28125,1.00781 l 5.83594,20.97656 10.75781,-20.97656 c 0.21873,-0.42185 0.39841,-0.75779 0.53907,-1.00781 0.15622,-0.2656 0.28903,-0.46873 0.39843,-0.60938 0.12498,-0.1406 0.23435,-0.23434 0.32813,-0.28125 0.10935,-0.0468 0.23435,-0.0703 0.375,-0.0703 l 6.09375,0 -0.0937,1.00781"
         style="font-size:48px;fill:#c8b7b7;stroke:#c6c6c6;stroke-width:1.57981865;stroke-miterlimit:4;stroke-opacity:1;stroke-dasharray:none;font-family:Gentium;-inkscape-font-specification:Gentium Bold Italic"
         id="path3027-2"
         inkscape:connector-curvature="0" />
      <path
         d="m 437.45312,317.48341 c 0.32812,0 0.77343,-0.25781 1.33594,-0.77344 0.56249,-0.53125 1.16405,-1.23437 1.80469,-2.10937 0.65624,-0.875 1.31249,-1.89062 1.96875,-3.04688 0.67186,-1.15624 1.26561,-2.36718 1.78125,-3.63281 0.0625,-0.59374 0.12499,-1.21093 0.1875,-1.85156 0.0781,-0.65624 0.17967,-1.35155 0.30469,-2.08594 0.0469,-0.32811 0.10936,-0.64061 0.1875,-0.9375 0.0937,-0.29686 0.19529,-0.57811 0.30468,-0.84375 -0.23439,-0.18748 -0.4922,-0.39061 -0.77343,-0.60938 -0.28127,-0.21873 -0.59377,-0.42967 -0.9375,-0.63281 -0.32814,-0.20311 -0.68752,-0.36717 -1.07813,-0.49219 -0.39064,-0.1406 -0.8047,-0.21091 -1.24219,-0.21093 -0.71876,2e-5 -1.39844,0.1797 -2.03906,0.53906 -0.64063,0.34377 -1.23438,0.8047 -1.78125,1.38281 -0.53125,0.57814 -1.01563,1.2422 -1.45312,1.99219 -0.42188,0.73439 -0.78907,1.50001 -1.10157,2.29687 -0.29688,0.78127 -0.53125,1.5547 -0.70312,2.32032 -0.15625,0.76563 -0.23438,1.45313 -0.23438,2.0625 0,1.01563 0.0937,1.92969 0.28125,2.74218 0.1875,0.81251 0.4375,1.50782 0.75,2.08594 0.3125,0.57813 0.67969,1.02344 1.10157,1.33594 0.42187,0.3125 0.86718,0.46875 1.33593,0.46875 m 12.67969,-18.86719 c -0.53127,0.43752 -0.95314,0.97658 -1.26562,1.61719 -0.2969,0.64064 -0.51565,1.52345 -0.65625,2.64844 -0.21877,1.85939 -0.38283,3.5547 -0.49219,5.08593 -0.0938,1.53126 -0.17971,2.96876 -0.25781,4.3125 -0.0625,1.32813 -0.14846,2.60157 -0.25782,3.82032 -0.0938,1.20312 -0.25001,2.40625 -0.46875,3.60937 -0.28126,1.625 -0.78126,3.14844 -1.5,4.57031 -0.70314,1.42187 -1.54688,2.66406 -2.53125,3.72657 -0.96876,1.06249 -2.04688,1.89842 -3.23437,2.50781 -1.17188,0.62499 -2.3672,0.93749 -3.58594,0.9375 -0.65625,-10e-6 -1.36719,-0.10158 -2.13281,-0.30469 -0.75,-0.18751 -1.44532,-0.42189 -2.08594,-0.70312 -0.64062,-0.28126 -1.17969,-0.58595 -1.61719,-0.91407 -0.42187,-0.32813 -0.63281,-0.63282 -0.63281,-0.91406 0,-0.26563 0.10157,-0.57032 0.30469,-0.91406 0.20312,-0.32813 0.4375,-0.64063 0.70312,-0.9375 0.26563,-0.28126 0.52344,-0.52345 0.77344,-0.72656 0.26563,-0.20314 0.45313,-0.3047 0.5625,-0.30469 0.125,-10e-6 0.25,0.0781 0.375,0.23437 0.14062,0.15625 0.30469,0.34375 0.49219,0.5625 0.20312,0.23437 0.4375,0.48437 0.70312,0.75 0.28125,0.28125 0.61719,0.53125 1.00782,0.75 0.39062,0.23437 0.85937,0.42968 1.40625,0.58594 0.54687,0.15624 1.18749,0.23437 1.92187,0.23438 1.51562,-10e-6 2.71874,-0.6797 3.60938,-2.03907 0.89061,-1.35938 1.56248,-3.34375 2.01562,-5.95312 0.14061,-0.875 0.24999,-1.69531 0.32813,-2.46094 0.0937,-0.78125 0.16405,-1.53125 0.21093,-2.25 0.0625,-0.73437 0.10937,-1.44531 0.14063,-2.13281 0.0312,-0.70312 0.0625,-1.42187 0.0937,-2.15625 -0.50001,0.98438 -1.08595,2 -1.75781,3.04687 -0.65626,1.03126 -1.35939,1.97657 -2.10938,2.83594 -0.73438,0.85938 -1.48438,1.5625 -2.25,2.10938 -0.76563,0.56249 -1.49219,0.84374 -2.17969,0.84375 -0.51563,-10e-6 -1.07031,-0.14844 -1.66406,-0.44532 -0.57813,-0.29687 -1.125,-0.76562 -1.64062,-1.40625 -0.5,-0.65625 -0.91407,-1.49218 -1.24219,-2.50781 -0.32813,-1.03124 -0.49219,-2.28124 -0.49219,-3.75 0,-1.23437 0.14063,-2.43749 0.42188,-3.60937 0.28125,-1.18749 0.70312,-2.31249 1.26562,-3.375 0.57812,-1.07811 1.29687,-2.08593 2.15625,-3.02344 0.85937,-0.95311 1.86718,-1.81248 3.02344,-2.57813 0.43749,-0.28123 0.90624,-0.55466 1.40625,-0.82031 0.49999,-0.2656 1.01561,-0.49998 1.54687,-0.70312 0.53124,-0.20311 1.05468,-0.36717 1.57032,-0.49219 0.53123,-0.12498 1.03905,-0.18748 1.52343,-0.1875 0.34374,2e-5 0.67968,0.0547 1.00782,0.16406 0.32811,0.0938 0.64061,0.21877 0.9375,0.375 0.31248,0.15627 0.60154,0.32815 0.86718,0.51563 0.28124,0.18752 0.54686,0.35939 0.79688,0.51562 0.35936,-0.34373 0.73436,-0.6406 1.125,-0.89062 0.40623,-0.24998 0.81248,-0.47655 1.21875,-0.67969 l 0.53906,0.82031 0,0"
         style="font-size:48px;fill:#c8b7b7;stroke:#c6c6c6;stroke-width:1.57981865;stroke-miterlimit:4;stroke-opacity:1;stroke-dasharray:none;font-family:Gentium;-inkscape-font-specification:Gentium Bold Italic"
         id="path3029-9"
         inkscape:connector-curvature="0" />
      <path
         d="m 468.90625,299.81153 c -0.18752,0.25002 -0.39846,0.55471 -0.63281,0.91407 -0.21877,0.35939 -0.44533,0.71095 -0.67969,1.05468 -0.21877,0.32815 -0.4297,0.6094 -0.63281,0.84375 -0.20314,0.2344 -0.38283,0.35158 -0.53907,0.35157 -0.29689,1e-5 -0.5547,-0.0859 -0.77343,-0.25782 -0.20314,-0.17185 -0.39845,-0.35154 -0.58594,-0.53906 -0.17189,-0.20311 -0.35158,-0.39061 -0.53906,-0.5625 -0.17189,-0.17186 -0.37502,-0.25779 -0.60938,-0.25781 -0.40626,2e-5 -0.88282,0.28127 -1.42969,0.84375 -0.53126,0.54689 -1.07032,1.27345 -1.61718,2.17969 -0.53126,0.89064 -1.04689,1.89845 -1.54688,3.02343 -0.48438,1.10939 -0.89063,2.22658 -1.21875,3.35157 -0.17188,0.59375 -0.32813,1.25 -0.46875,1.96875 -0.125,0.70313 -0.24219,1.42969 -0.35156,2.17968 -0.0938,0.75001 -0.16407,1.49219 -0.21094,2.22657 -0.0469,0.71875 -0.0547,1.39062 -0.0234,2.01562 -0.20313,0.10938 -0.46094,0.23438 -0.77343,0.375 -0.29688,0.125 -0.60938,0.25781 -0.9375,0.39844 -0.31251,0.14062 -0.61719,0.27344 -0.91407,0.39844 -0.29687,0.14062 -0.53906,0.26562 -0.72656,0.375 l -0.77344,-0.72657 c 0.23438,-1.10937 0.46094,-2.25781 0.67969,-3.44531 0.21875,-1.18749 0.42187,-2.36718 0.60938,-3.53906 0.20312,-1.18749 0.38281,-2.34374 0.53906,-3.46875 0.17187,-1.12499 0.3125,-2.17186 0.42187,-3.14063 0.125,-0.96873 0.21875,-1.83592 0.28125,-2.60156 0.0781,-0.76561 0.11719,-1.38279 0.11719,-1.85156 0,-0.35936 -0.0312,-0.64061 -0.0937,-0.84375 -0.0469,-0.21873 -0.11719,-0.37498 -0.21094,-0.46875 -0.0781,-0.10936 -0.17969,-0.17967 -0.30468,-0.21094 -0.10938,-0.0312 -0.22657,-0.0469 -0.35157,-0.0469 -0.14062,2e-5 -0.35156,0.0313 -0.63281,0.0937 -0.26563,0.0625 -0.53125,0.13283 -0.79687,0.21093 -0.26563,0.0625 -0.5,0.12502 -0.70313,0.1875 -0.1875,0.0469 -0.28125,0.0703 -0.28125,0.0703 l -0.32812,-0.86719 c 0.65625,-0.29686 1.3125,-0.57811 1.96875,-0.84375 0.67187,-0.28123 1.29687,-0.52342 1.875,-0.72656 0.57812,-0.20311 1.07812,-0.36717 1.5,-0.49219 0.43749,-0.12498 0.74999,-0.18748 0.9375,-0.1875 0.21874,2e-5 0.39061,0.0391 0.51562,0.11719 0.12499,0.0781 0.21093,0.21877 0.25781,0.42187 0.0625,0.18752 0.10156,0.46096 0.11719,0.82031 0.0156,0.34377 0.0234,0.78909 0.0234,1.33594 -10e-6,0.17189 -0.0235,0.46096 -0.0703,0.86719 -0.0469,0.40627 -0.10157,0.85158 -0.16407,1.33594 -0.0625,0.46876 -0.13282,0.93751 -0.21093,1.40625 -0.0625,0.46876 -0.1172,0.85157 -0.16407,1.14843 0.75,-1.54686 1.46093,-2.80467 2.13282,-3.77343 0.67186,-0.96874 1.30467,-1.72655 1.89843,-2.27344 0.60937,-0.54686 1.18749,-0.91404 1.73438,-1.10156 0.54686,-0.20311 1.0703,-0.30467 1.57031,-0.30469 0.28124,2e-5 0.53124,0.0781 0.75,0.23437 0.23436,0.15627 0.46874,0.34377 0.70313,0.5625 0.23436,0.21877 0.48436,0.44534 0.75,0.67969 0.26561,0.21877 0.57029,0.39846 0.91406,0.53906"
         style="font-size:48px;fill:#c8b7b7;stroke:#c6c6c6;stroke-width:1.57981865;stroke-miterlimit:4;stroke-opacity:1;stroke-dasharray:none;font-family:Gentium;-inkscape-font-specification:Gentium Bold Italic"
         id="path3031-2"
         inkscape:connector-curvature="0" />
    </g>
    <g
       id="g3765"
       style="fill-opacity:0;stroke:#86e1ff;fill:#000000">
      <path
         inkscape:transform-center-y="43.728105"
         inkscape:transform-center-x="38.135128"
         inkscape:export-ydpi="90"
         inkscape:export-xdpi="90"
         inkscape:export-filename="/tmp/flowtime-logo-lichthof.png"
         inkscape:connector-curvature="0"
         id="path3877-8"
         d="m 188.23645,394.04667 c -23.78622,25.8927 -47.57247,51.78542 -71.3587,77.67814"
         style="fill-opacity:0;stroke:#86e1ff;stroke-width:7.63095330999999977;stroke-linecap:round;stroke-linejoin:miter;stroke-miterlimit:4;stroke-opacity:1;stroke-dasharray:none;fill:#000000" />
      <path
         inkscape:transform-center-y="-42.111634"
         inkscape:transform-center-x="9.6533991"
         inkscape:export-ydpi="90"
         inkscape:export-xdpi="90"
         inkscape:export-filename="/tmp/flowtime-logo-lichthof.png"
         inkscape:connector-curvature="0"
         id="path3877-9-0"
         d="m 173.31895,307.40072 c 17.93755,84.52466 17.93755,84.52466 17.93755,84.52466 l 0,0"
         style="fill-opacity:0;stroke:#86e1ff;stroke-width:15.17746258000000026;stroke-linecap:round;stroke-linejoin:miter;stroke-miterlimit:4;stroke-opacity:1;stroke-dasharray:none;fill:#000000" />
    </g>
    <path
       style="fill:#00c0ff;fill-opacity:1;stroke:#00c0ff;stroke-width:22.02700043;stroke-linecap:round;stroke-linejoin:bevel;stroke-miterlimit:4;stroke-opacity:1;stroke-dasharray:none"
       d="m 433.18498,511.85919 c 59.69302,3.13021 97.04256,38.56662 149.82427,30.41165 32.66167,-13.33521 30.6863,-68.15576 -2.26356,-79.89665 C 525.94491,426.7063 453.65423,437.14658 398.52082,466.48638 336.34917,498.29504 275.87533,543.22266 203.1475,544.13706 128.56942,549.79071 50.63485,495.18936 41.176647,418.84613 28.068861,344.60505 63.489165,264.24172 140.06417,249.0883 c 36.57811,-10.69871 49.94618,-16.49071 120.08338,1.1833 -73.64808,-21.42574 -148.89033,-6.85132 -188.699488,40.19922 -53.852687,63.27918 -46.55915,173.89146 24.474993,221.59073 81.033905,61.11549 138.015435,29.90724 204.692585,21.3845 44.37137,-6.05954 72.87632,-24.71707 132.56934,-21.58686 z"
       id="path3788"
       inkscape:connector-curvature="0"
       sodipodi:nodetypes="zccccccccccz" />
    <flowRoot
       xml:space="preserve"
       id="flowRoot3001"
       style="font-size:144px;font-style:oblique;font-variant:normal;font-weight:bold;font-stretch:normal;line-height:125%;letter-spacing:0px;word-spacing:0px;fill:#606060;fill-opacity:1;stroke:none;font-family:DejaVu Sans;-inkscape-font-specification:DejaVu Sans Bold Oblique"
       transform="matrix(0.81107787,0,0,1.0544913,-26.149891,14.996197)"
       inkscape:export-filename="/home/floh/D/programing/flowtime/site/logo/flowtime-logo-einfacher.png"
       inkscape:export-xdpi="90"
       inkscape:export-ydpi="90"><flowRegion
         id="flowRegion3003"><rect
           id="rect3005"
           width="574.0741"
           height="185.18521"
           x="246.2963"
           y="219.02885"
           style="font-size:144px;font-style:oblique;font-weight:bold;fill:#606060;-inkscape-font-specification:DejaVu Sans Bold Oblique" /></flowRegion><flowPara
         id="flowPara3007"
         style="font-style:italic;font-variant:normal;font-weight:bold;font-stretch:normal;fill:#606060;font-family:Linux Biolinum;-inkscape-font-specification:Linux Biolinum Bold Italic">FlowTime</flowPara></flowRoot>    <path
       sodipodi:type="arc"
       style="fill:#00c0ff;fill-opacity:1;stroke:#86e1fe;stroke-width:1;stroke-linecap:round;stroke-miterlimit:4;stroke-opacity:1;stroke-dasharray:none"
       id="path3867"
       sodipodi:cx="376.47058"
       sodipodi:cy="862.65631"
       sodipodi:rx="214.70589"
       sodipodi:ry="201.47058"
       d="M 424.38954,666.26756 A 214.70589,201.47058 0 0 1 589.52782,887.57547 L 376.47058,862.65631 z"
       sodipodi:start="4.9374688"
       sodipodi:end="6.4071892"
       transform="matrix(0.61090728,-0.79170215,0.79170215,0.61090728,352.98367,444.28679)" />
    <path
       sodipodi:type="arc"
       style="fill:#33ff40;fill-opacity:1;stroke:#86e1fe;stroke-width:1;stroke-linecap:round;stroke-miterlimit:4;stroke-opacity:1;stroke-dasharray:none"
       id="path3867-7"
       sodipodi:cx="376.47058"
       sodipodi:cy="862.65631"
       sodipodi:rx="214.70589"
       sodipodi:ry="201.47058"
       d="M 424.38954,666.26756 A 214.70589,201.47058 0 0 1 589.52782,887.57547 L 376.47058,862.65631 z"
       sodipodi:start="4.9374688"
       sodipodi:end="6.4071892"
       transform="matrix(-0.97292957,0.23110181,-0.23110181,-0.97292957,1828.3337,1430.138)"
       inkscape:transform-center-x="104.4035"
       inkscape:transform-center-y="106.65659" />
    <path
       sodipodi:type="arc"
       style="fill:#ff264c;fill-opacity:1;stroke:#86e1fe;stroke-width:1;stroke-linecap:round;stroke-miterlimit:4;stroke-opacity:1;stroke-dasharray:none"
       id="path3867-3"
       sodipodi:cx="376.47058"
       sodipodi:cy="862.65631"
       sodipodi:rx="214.70589"
       sodipodi:ry="201.47058"
       d="M 424.38954,666.26756 A 214.70589,201.47058 0 0 1 589.52782,887.57547 L 376.47058,862.65631 z"
       sodipodi:start="4.9374688"
       sodipodi:end="6.4071892"
       transform="matrix(0.16365221,0.9865181,-0.9865181,0.16365221,2060.9747,163.79027)"
       inkscape:transform-center-x="-101.26883"
       inkscape:transform-center-y="107.28061" />
    <path
       sodipodi:type="arc"
       style="fill:#7f73a6;fill-opacity:1;stroke:#86e1fe;stroke-width:1;stroke-linecap:round;stroke-miterlimit:4;stroke-opacity:1;stroke-dasharray:none"
       id="path3894"
       sodipodi:cx="776.47058"
       sodipodi:cy="430.30334"
       sodipodi:rx="197.05882"
       sodipodi:ry="189.70589"
       d="M 953.96237,347.88903 A 197.05882,189.70589 0 0 1 952.71922,515.1542 L 776.47058,430.30334 z"
       sodipodi:start="5.8337777"
       sodipodi:end="6.7469025"
       transform="matrix(0.94106826,-0.33821669,0.33821669,0.94106826,421.81485,510.21413)" />
    <path
       sodipodi:type="arc"
       style="fill:#1ae09f;fill-opacity:1;stroke:#86e1fe;stroke-width:1;stroke-linecap:round;stroke-miterlimit:4;stroke-opacity:1;stroke-dasharray:none"
       id="path3894-0"
       sodipodi:cx="776.47058"
       sodipodi:cy="430.30334"
       sodipodi:rx="197.05882"
       sodipodi:ry="189.70589"
       d="m 902.53399,284.49463 a 197.05882,189.70589 0 0 1 69.48227,169.27274 L 776.47058,430.30334 z"
       sodipodi:start="5.4065291"
       sodipodi:end="6.4071892"
       transform="matrix(-0.69626194,-0.71778778,0.71778778,-0.69626194,1476.4118,1521.4432)" />
    <flowRoot
       xml:space="preserve"
       id="flowRoot2998"
       style="font-size:137.50000000000000000px;font-style:italic;font-variant:normal;font-weight:bold;font-stretch:normal;line-height:125%;letter-spacing:0px;word-spacing:0px;fill:#000000;fill-opacity:1;stroke:none;font-family:GentiumAlt;-inkscape-font-specification:GentiumAlt Bold Italic"><flowRegion
         id="flowRegion3000"><rect
           id="rect3002"
           width="311.01099"
           height="81.341339"
           x="296.65665"
           y="258.08795"
           style="font-size:137.50000000000000000px;font-style:italic;font-variant:normal;font-weight:bold;font-stretch:normal;font-family:GentiumAlt;-inkscape-font-specification:GentiumAlt Bold Italic" /></flowRegion><flowPara
         id="flowPara3004"
         style="font-weight:bold;-inkscape-font-specification:GentiumAlt Bold Italic;font-size:137.50000000000000000px" /></flowRoot>    <g
       transform="matrix(2.2839673,0,0,4.385667,-446.55482,-1009.7441)"
       style="font-size:40px;font-style:italic;font-variant:normal;font-weight:bold;font-stretch:normal;line-height:125%;letter-spacing:0px;word-spacing:0px;fill:#4d4d4d;fill-opacity:1;stroke:#625353;stroke-width:1.57981861000000001;stroke-miterlimit:4;stroke-opacity:1;stroke-dasharray:none;font-family:GentiumAlt;-inkscape-font-specification:GentiumAlt Bold Italic"
       id="flowRoot3006">
      <path
         d="m 297.25,290.7881 c -0.0781,0.40627 -0.17971,0.85159 -0.30469,1.33593 -0.10939,0.48441 -0.24221,0.96878 -0.39844,1.45313 -0.14064,0.4844 -0.28908,0.94534 -0.44531,1.38281 -0.15627,0.43752 -0.29689,0.80471 -0.42187,1.10156 l -0.96094,0 c 0.0625,-0.71872 0.0781,-1.31247 0.0469,-1.78125 -0.0313,-0.48435 -0.10158,-0.86716 -0.21093,-1.14843 -0.1094,-0.29685 -0.25783,-0.49998 -0.44532,-0.60938 -0.18751,-0.12497 -0.42189,-0.18747 -0.70312,-0.1875 l -8.03906,0 -1.40625,10.17188 7.57031,0 0.53906,0.65625 c -0.17189,0.21876 -0.35939,0.44532 -0.5625,0.67968 -0.18751,0.23439 -0.38283,0.46877 -0.58594,0.70313 -0.20314,0.21876 -0.40626,0.4297 -0.60937,0.63281 -0.20314,0.18752 -0.38283,0.35158 -0.53906,0.49219 -0.53127,-0.53124 -1.14845,-0.87499 -1.85157,-1.03125 -0.68751,-0.17186 -1.54688,-0.2578 -2.57812,-0.25781 l -1.64063,0 -1.75781,12.91406 c -0.0312,0.1875 0.21875,0.39844 0.75,0.63281 0.53124,0.23438 1.47656,0.5 2.83594,0.79688 l -0.14063,1.00781 -10.26562,0 0.14062,-1.00781 c 0.98438,-0.21875 1.77344,-0.45313 2.36719,-0.70313 0.59375,-0.26562 0.90625,-0.50781 0.9375,-0.72656 l 3.42188,-24.63281 c 0.0312,-0.18748 -0.19532,-0.42185 -0.67969,-0.70313 -0.48438,-0.28122 -1.23438,-0.53122 -2.25,-0.75 l 0.14062,-1.00781 17.48438,0 0.5625,0.58594"
         style="font-size:48px;fill:#4d4d4d;fill-opacity:1;stroke:#625353;stroke-width:1.57981861000000001;stroke-miterlimit:4;stroke-opacity:1;stroke-dasharray:none;font-family:Gentium;-inkscape-font-specification:Gentium Bold Italic"
         id="path3015"
         inkscape:connector-curvature="0" />
      <path
         d="m 306.25,318.04591 c -0.76563,0.48437 -1.44532,0.89844 -2.03906,1.24219 -0.57814,0.32812 -1.10938,0.59375 -1.59375,0.79687 -0.46876,0.21875 -0.90626,0.375 -1.3125,0.46875 -0.40626,0.0937 -0.80469,0.14062 -1.19532,0.14063 -0.4375,-10e-6 -0.82812,-0.23438 -1.17187,-0.70313 -0.34375,-0.46875 -0.51563,-1.16406 -0.51563,-2.08594 0,-0.39062 0.0547,-1.05468 0.16407,-1.99218 0.12499,-0.9375 0.28124,-2.05469 0.46875,-3.35157 0.18749,-1.29686 0.39843,-2.71874 0.63281,-4.26562 0.25,-1.56249 0.5,-3.15624 0.75,-4.78125 0.25,-1.62498 0.49218,-3.23436 0.72656,-4.82813 0.25,-1.59372 0.46875,-3.0781 0.65625,-4.45312 0.1875,-1.37497 0.33593,-2.58591 0.44531,-3.63281 0.125,-1.06247 0.1875,-1.86716 0.1875,-2.41407 0,-0.35934 -0.0391,-0.64059 -0.11718,-0.84375 -0.0625,-0.21871 -0.14845,-0.37496 -0.25782,-0.46875 -0.10938,-0.10934 -0.24219,-0.17965 -0.39843,-0.21093 -0.14063,-0.0312 -0.28126,-0.0469 -0.42188,-0.0469 -0.125,3e-5 -0.32813,0.0313 -0.60937,0.0937 -0.26563,0.0625 -0.53907,0.14066 -0.82032,0.23438 -0.26562,0.0781 -0.5,0.14847 -0.70312,0.21093 -0.20313,0.0625 -0.30469,0.0938 -0.30469,0.0937 l -0.35156,-0.91406 c 0.65625,-0.29684 1.3125,-0.57809 1.96875,-0.84375 0.67187,-0.26559 1.28906,-0.49996 1.85156,-0.70312 0.57812,-0.20309 1.08593,-0.36716 1.52344,-0.49219 0.43749,-0.12497 0.7578,-0.18747 0.96094,-0.1875 0.43749,3e-5 0.78124,0.14066 1.03125,0.42187 0.26561,0.28129 0.39842,0.78129 0.39843,1.5 -1e-5,0.60941 -0.0625,1.45316 -0.1875,2.53125 -0.10938,1.07816 -0.25782,2.31253 -0.44531,3.70313 -0.18751,1.37502 -0.40626,2.8594 -0.65625,4.45312 -0.25001,1.57815 -0.50001,3.17971 -0.75,4.80469 -0.25001,1.62502 -0.50001,3.22658 -0.75,4.80469 -0.25,1.56251 -0.46875,3.01563 -0.65625,4.35937 -0.1875,1.34376 -0.34375,2.53126 -0.46875,3.5625 -0.10938,1.01563 -0.16407,1.78907 -0.16406,2.32032 -10e-6,0.53125 0.0703,0.89844 0.21094,1.10156 0.15624,0.1875 0.35937,0.28125 0.60937,0.28125 0.35937,0 0.77343,-0.0625 1.24219,-0.1875 0.48437,-0.125 1.07812,-0.32031 1.78125,-0.58594 l 0.28125,0.86719 0,0"
         style="font-size:48px;fill:#4d4d4d;fill-opacity:1;stroke:#625353;stroke-width:1.57981861000000001;stroke-miterlimit:4;stroke-opacity:1;stroke-dasharray:none;font-family:Gentium;-inkscape-font-specification:Gentium Bold Italic"
         id="path3017"
         inkscape:connector-curvature="0" />
      <path
         d="m 322.9375,307.92091 c -2e-5,-2.39061 -0.43752,-4.21874 -1.3125,-5.48438 -0.87501,-1.2656 -2.1172,-1.89842 -3.72656,-1.89843 -1.12501,1e-5 -2.07032,0.32814 -2.83594,0.98437 -0.76563,0.64064 -1.38282,1.45314 -1.85156,2.4375 -0.46876,0.98439 -0.8047,2.0547 -1.00782,3.21094 -0.20312,1.14063 -0.30469,2.21095 -0.30468,3.21094 -10e-6,1.04688 0.12499,2.03907 0.375,2.97656 0.26562,0.92188 0.62499,1.73438 1.07812,2.4375 0.46875,0.6875 1.00781,1.23438 1.61719,1.64062 0.62499,0.40626 1.29687,0.60938 2.01562,0.60938 0.71874,0 1.35937,-0.15625 1.92188,-0.46875 0.57811,-0.32812 1.08592,-0.75781 1.52344,-1.28906 0.45311,-0.54688 0.83592,-1.16406 1.14843,-1.85157 0.31249,-0.70312 0.5703,-1.42968 0.77344,-2.17968 0.20311,-0.75 0.35155,-1.5 0.44531,-2.25 0.0937,-0.74999 0.14061,-1.44531 0.14063,-2.08594 m 3.35156,-1.28906 c -2e-5,1.04688 -0.1172,2.10938 -0.35156,3.1875 -0.23439,1.0625 -0.57814,2.10157 -1.03125,3.11718 -0.45314,1.00001 -1.01564,1.96095 -1.6875,2.88282 -0.65627,0.90625 -1.42189,1.71875 -2.29688,2.4375 -0.40626,0.32812 -0.83595,0.64062 -1.28906,0.9375 -0.45313,0.29687 -0.91407,0.55468 -1.38281,0.77343 -0.46876,0.23438 -0.94532,0.41407 -1.42969,0.53907 -0.48438,0.12499 -0.96094,0.18749 -1.42969,0.1875 -1.09375,-10e-6 -2.07031,-0.23438 -2.92968,-0.70313 -0.84376,-0.45312 -1.56251,-1.07812 -2.15625,-1.875 -0.57813,-0.8125 -1.02344,-1.76562 -1.33594,-2.85937 -0.29688,-1.10937 -0.44531,-2.30469 -0.44531,-3.58594 0,-1.12499 0.0937,-2.20312 0.28125,-3.23438 0.1875,-1.04686 0.49218,-2.05467 0.91406,-3.02343 0.42187,-0.96874 0.98437,-1.89843 1.6875,-2.78907 0.70312,-0.8906 1.57031,-1.74998 2.60156,-2.57812 0.79687,-0.62498 1.67187,-1.15623 2.625,-1.59375 0.95312,-0.43748 1.91405,-0.65623 2.88281,-0.65625 1.21874,2e-5 2.2578,0.21877 3.11719,0.65625 0.85936,0.43752 1.55467,1.04689 2.08594,1.82812 0.54686,0.78127 0.94529,1.71096 1.19531,2.78907 0.24998,1.07814 0.37498,2.26564 0.375,3.5625"
         style="font-size:48px;fill:#4d4d4d;fill-opacity:1;stroke:#625353;stroke-width:1.57981861000000001;stroke-miterlimit:4;stroke-opacity:1;stroke-dasharray:none;font-family:Gentium;-inkscape-font-specification:Gentium Bold Italic"
         id="path3019"
         inkscape:connector-curvature="0" />
      <path
         d="m 356.875,299.57716 c -3e-5,0.40627 -0.0391,0.89064 -0.11719,1.45312 -0.0781,0.5469 -0.22659,1.20315 -0.44531,1.96875 -0.20315,0.76564 -0.49222,1.66408 -0.86719,2.69532 -0.37503,1.01563 -0.86721,2.20313 -1.47656,3.5625 -0.59378,1.34375 -1.32034,2.875 -2.17969,4.59375 -0.84377,1.71875 -1.85158,3.66406 -3.02344,5.83593 -0.14064,0.0781 -0.3047,0.15625 -0.49218,0.23438 -0.1719,0.0937 -0.3594,0.17969 -0.5625,0.25781 -0.20315,0.0937 -0.39846,0.1875 -0.58594,0.28125 -0.18752,0.0937 -0.35939,0.17187 -0.51563,0.23438 l -0.77343,-0.72657 c -0.1094,-0.875 -0.2344,-1.82031 -0.375,-2.83593 -0.12502,-1.03125 -0.26565,-2.07031 -0.42188,-3.11719 -0.14064,-1.0625 -0.28908,-2.10937 -0.44531,-3.14063 -0.15627,-1.04686 -0.31252,-2.03124 -0.46875,-2.95312 -0.15627,-0.92186 -0.31252,-1.7578 -0.46875,-2.50781 -0.14064,-0.74999 -0.28127,-1.36718 -0.42188,-1.85157 -0.0156,0.32814 -0.1172,0.82814 -0.30468,1.5 -0.18752,0.65627 -0.43752,1.4297 -0.75,2.32032 -0.31252,0.89063 -0.6797,1.85157 -1.10157,2.88281 -0.42188,1.03126 -0.87501,2.08594 -1.35937,3.16406 -0.48439,1.07813 -0.9922,2.14063 -1.52344,3.1875 -0.51563,1.03125 -1.03907,1.99219 -1.57031,2.88281 -0.14063,0.0781 -0.31251,0.16407 -0.51563,0.25782 -0.1875,0.10937 -0.39063,0.21875 -0.60937,0.32812 -0.21876,0.125 -0.43751,0.24219 -0.65625,0.35156 -0.20313,0.10938 -0.38282,0.19531 -0.53906,0.25782 l -0.75,-0.72657 c -0.10938,-0.875 -0.22657,-1.84375 -0.35157,-2.90625 -0.10938,-1.07812 -0.22656,-2.17968 -0.35156,-3.30468 -0.10938,-1.14062 -0.22657,-2.28125 -0.35156,-3.42188 -0.12501,-1.14061 -0.25001,-2.21874 -0.375,-3.23437 -0.12501,-1.01562 -0.25782,-1.93749 -0.39844,-2.76563 -0.125,-0.84373 -0.25781,-1.53123 -0.39844,-2.0625 -0.0937,-0.42186 -0.21094,-0.75779 -0.35156,-1.00781 -0.125,-0.24998 -0.26563,-0.4453 -0.42187,-0.58594 -0.14063,-0.14061 -0.28907,-0.22654 -0.44532,-0.25781 -0.15625,-0.0469 -0.30469,-0.0703 -0.44531,-0.0703 -0.14063,2e-5 -0.34375,0.0313 -0.60937,0.0937 -0.25,0.0625 -0.50782,0.13283 -0.77344,0.21093 -0.25,0.0625 -0.46875,0.12502 -0.65625,0.1875 -0.1875,0.0469 -0.28125,0.0703 -0.28125,0.0703 l -0.32813,-0.86719 c 0.65625,-0.29686 1.28125,-0.57811 1.875,-0.84375 0.59375,-0.28123 1.13281,-0.52342 1.61719,-0.72656 0.48437,-0.20311 0.90625,-0.36717 1.26563,-0.49219 0.37499,-0.12498 0.66405,-0.18748 0.86718,-0.1875 0.4375,2e-5 0.76562,0.25783 0.98438,0.77344 0.21874,0.50002 0.46093,1.31252 0.72656,2.4375 0.0937,0.43751 0.20312,1.0547 0.32813,1.85156 0.12499,0.78126 0.24999,1.65626 0.375,2.625 0.14061,0.96876 0.27343,1.98439 0.39843,3.04687 0.125,1.04689 0.24218,2.04689 0.35157,3 0.10936,0.95314 0.1953,1.81251 0.25781,2.57813 0.0781,0.76563 0.1328,1.34375 0.16406,1.73437 0.62499,-1.21874 1.26562,-2.54687 1.92188,-3.98437 0.65624,-1.45312 1.2578,-2.91405 1.80468,-4.38281 0.54687,-1.46874 0.99999,-2.89061 1.35938,-4.26563 0.37499,-1.39061 0.60155,-2.63279 0.67969,-3.72656 0.23436,-0.20311 0.48436,-0.40623 0.75,-0.60938 0.28123,-0.2031 0.55467,-0.38279 0.82031,-0.53906 0.28123,-0.15623 0.53905,-0.28123 0.77344,-0.375 0.24998,-0.10935 0.46092,-0.16404 0.63281,-0.16406 0.0625,2e-5 0.14061,0.13283 0.23437,0.39844 0.0937,0.25002 0.1953,0.58595 0.30469,1.00781 0.10936,0.42189 0.21873,0.91408 0.32813,1.47656 0.12498,0.54689 0.24217,1.10939 0.35156,1.6875 0.10936,0.57814 0.21873,1.15627 0.32812,1.73438 0.10936,0.57814 0.20311,1.10157 0.28125,1.57031 0.10936,0.73439 0.23436,1.54689 0.375,2.4375 0.15623,0.89063 0.30467,1.8047 0.44532,2.74219 0.15623,0.9375 0.29685,1.875 0.42187,2.8125 0.14061,0.9375 0.24998,1.8125 0.32813,2.625 1.17185,-2.15625 2.12497,-4.05468 2.85937,-5.69532 0.74998,-1.64061 1.3281,-3.0703 1.73438,-4.28906 0.42185,-1.23436 0.7031,-2.27342 0.84375,-3.11719 0.15622,-0.85935 0.23435,-1.58592 0.23437,-2.17968 -2e-5,-0.32811 -0.11721,-0.58592 -0.35156,-0.77344 -0.21878,-0.18748 -0.53128,-0.28123 -0.9375,-0.28125 -0.21878,2e-5 -0.4844,0.0313 -0.79688,0.0937 -0.31252,0.0625 -0.64064,0.14846 -0.98437,0.25781 l -0.42188,-0.86719 c 0.53123,-0.31248 1.03904,-0.57029 1.52344,-0.77343 0.48435,-0.21873 0.91404,-0.39061 1.28906,-0.51563 0.3906,-0.12498 0.71873,-0.21092 0.98438,-0.25781 0.2656,-0.0625 0.4531,-0.0937 0.5625,-0.0937 0.2656,2e-5 0.5156,0.0235 0.75,0.0703 0.23435,0.0313 0.43747,0.1094 0.60937,0.23438 0.18748,0.12502 0.33591,0.3047 0.44532,0.53906 0.10934,0.23439 0.16403,0.54689 0.16406,0.9375"
         style="font-size:48px;fill:#4d4d4d;fill-opacity:1;stroke:#625353;stroke-width:1.57981861000000001;stroke-miterlimit:4;stroke-opacity:1;stroke-dasharray:none;font-family:Gentium;-inkscape-font-specification:Gentium Bold Italic"
         id="path3021"
         inkscape:connector-curvature="0" />
      <path
         d="m 383.45312,290.7881 c -0.0625,0.37502 -0.14065,0.80471 -0.23437,1.28906 -0.0938,0.46878 -0.20315,0.95315 -0.32813,1.45312 -0.12502,0.50003 -0.25783,0.99222 -0.39843,1.47657 -0.12503,0.48439 -0.25003,0.92189 -0.375,1.3125 l -0.96094,0 c -0.0313,-0.78123 -0.0781,-1.42967 -0.14063,-1.94532 -0.0625,-0.5156 -0.15627,-0.92185 -0.28125,-1.21875 -0.10939,-0.31247 -0.26564,-0.52341 -0.46875,-0.63281 -0.18752,-0.12497 -0.43752,-0.18747 -0.75,-0.1875 l -6.02343,0 -3.375,24.70313 c -0.0313,0.20312 0.1953,0.46094 0.67968,0.77343 0.48437,0.3125 1.35937,0.61719 2.625,0.91407 l -0.14062,1.00781 -10.45313,0 0.14063,-1.00781 c 1.34374,-0.29688 2.28905,-0.59375 2.83594,-0.89063 0.56249,-0.3125 0.85936,-0.57812 0.89062,-0.79687 l 3.44531,-24.70313 -6.35156,0 c -0.20313,3e-5 -0.39844,0.0469 -0.58594,0.14063 -0.17188,0.0781 -0.36719,0.25784 -0.58593,0.53906 -0.21876,0.28127 -0.47657,0.69534 -0.77344,1.24219 -0.29688,0.53127 -0.65625,1.25002 -1.07813,2.15625 l -0.86718,-0.44532 c 0.0469,-0.40622 0.11718,-0.85935 0.21093,-1.35937 0.10938,-0.5156 0.22656,-1.03123 0.35157,-1.54688 0.14062,-0.53122 0.28124,-1.03903 0.42187,-1.52343 0.15625,-0.49998 0.30469,-0.94529 0.44531,-1.33594 l 21.60938,0 0.51562,0.58594 0,0"
         style="font-size:48px;fill:#4d4d4d;fill-opacity:1;stroke:#625353;stroke-width:1.57981861000000001;stroke-miterlimit:4;stroke-opacity:1;stroke-dasharray:none;font-family:Gentium;-inkscape-font-specification:Gentium Bold Italic"
         id="path3023"
         inkscape:connector-curvature="0" />
      <path
         d="m 393.57812,290.15528 c -1e-5,0.43753 -0.0703,0.87503 -0.21093,1.3125 -0.12501,0.42191 -0.31251,0.81253 -0.5625,1.17188 -0.25001,0.34377 -0.5547,0.62502 -0.91407,0.84375 -0.35938,0.21877 -0.75782,0.32815 -1.19531,0.32812 -0.48438,3e-5 -0.85938,-0.1406 -1.125,-0.42187 -0.26563,-0.28123 -0.39844,-0.68747 -0.39844,-1.21875 0,-0.42185 0.0703,-0.84372 0.21094,-1.26563 0.14062,-0.43747 0.33593,-0.8359 0.58594,-1.19531 0.24999,-0.35934 0.54687,-0.64841 0.89062,-0.86719 0.35937,-0.23434 0.75781,-0.35153 1.19532,-0.35156 0.48436,3e-5 0.85936,0.14847 1.125,0.44531 0.26561,0.28128 0.39842,0.68753 0.39843,1.21875 m -0.63281,27.89063 c -0.73438,0.4375 -1.39844,0.82031 -1.99219,1.14844 -0.57813,0.32812 -1.10938,0.60156 -1.59375,0.82031 -0.48438,0.23437 -0.92188,0.40625 -1.3125,0.51562 -0.39063,0.10938 -0.75781,0.16406 -1.10156,0.16407 -0.53125,-10e-6 -0.95313,-0.25001 -1.26562,-0.75 -0.31251,-0.48438 -0.46876,-1.14844 -0.46875,-1.99219 -10e-6,-0.46875 0.0547,-1.13281 0.16406,-1.99219 0.125,-0.87499 0.27343,-1.83593 0.44531,-2.88281 0.17187,-1.06249 0.35937,-2.16406 0.5625,-3.30469 0.20312,-1.15624 0.39062,-2.24999 0.5625,-3.28125 0.17187,-1.04686 0.3125,-1.96873 0.42188,-2.76562 0.12499,-0.81249 0.18749,-1.41405 0.1875,-1.80469 -10e-6,-0.35936 -0.0234,-0.64061 -0.0703,-0.84375 -0.0469,-0.21873 -0.10938,-0.37498 -0.1875,-0.46875 -0.0781,-0.10936 -0.17969,-0.17967 -0.30468,-0.21094 -0.12501,-0.0312 -0.25782,-0.0469 -0.39844,-0.0469 -0.125,2e-5 -0.32032,0.0313 -0.58594,0.0937 -0.26563,0.0625 -0.53125,0.13283 -0.79687,0.21093 -0.25001,0.0625 -0.47657,0.12502 -0.67969,0.1875 -0.1875,0.0469 -0.28125,0.0703 -0.28125,0.0703 l -0.32813,-0.86719 c 0.65625,-0.29686 1.30469,-0.57811 1.94532,-0.84375 0.65624,-0.28123 1.26562,-0.52342 1.82812,-0.72656 0.5625,-0.20311 1.05468,-0.36717 1.47656,-0.49219 0.42187,-0.12498 0.73437,-0.18748 0.9375,-0.1875 0.4375,2e-5 0.74218,0.14846 0.91407,0.44531 0.18749,0.2969 0.28124,0.80471 0.28125,1.52344 -10e-6,0.45314 -0.0625,1.12502 -0.1875,2.01562 -0.10939,0.87502 -0.25782,1.85939 -0.44532,2.95313 -0.1875,1.09376 -0.38282,2.2422 -0.58593,3.44531 -0.20314,1.18751 -0.39845,2.32813 -0.58594,3.42188 -0.18751,1.09375 -0.34376,2.08594 -0.46875,2.97656 -0.10938,0.875 -0.16407,1.53906 -0.16406,1.99219 -10e-6,0.48437 0.0469,0.83594 0.14062,1.05468 0.10937,0.21876 0.29687,0.32813 0.5625,0.32813 0.48437,0 0.94531,-0.0625 1.38281,-0.1875 0.45312,-0.125 1,-0.32031 1.64063,-0.58594 l 0.35156,0.86719 0,0"
         style="font-size:48px;fill:#4d4d4d;fill-opacity:1;stroke:#625353;stroke-width:1.57981861000000001;stroke-miterlimit:4;stroke-opacity:1;stroke-dasharray:none;font-family:Gentium;-inkscape-font-specification:Gentium Bold Italic"
         id="path3025"
         inkscape:connector-curvature="0" />
      <path
         d="m 430,291.20997 c -0.42191,3e-5 -0.90629,0.0781 -1.45313,0.23438 -0.5469,0.14065 -1.10159,0.35159 -1.66406,0.63281 l -2.83594,25.21875 c -0.0313,0.1875 0.21091,0.42188 0.72657,0.70312 0.51559,0.26563 1.28122,0.50782 2.29687,0.72657 l -0.14062,1.00781 -9.60938,0 0.14063,-1.00781 c 0.98435,-0.21875 1.78903,-0.45313 2.41406,-0.70313 0.6406,-0.26562 0.97654,-0.50781 1.00781,-0.72656 l 2.53125,-22.35938 c -0.0469,0.0781 -0.0938,0.14847 -0.14062,0.21094 -0.0313,0.0625 -0.0625,0.13284 -0.0937,0.21094 l -12.42188,24.375 -0.96094,0 -6.51562,-24.53906 -3.1875,22.10156 c -0.0313,0.1875 0.18749,0.42188 0.65625,0.70312 0.46874,0.26563 1.21093,0.50782 2.22656,0.72657 l -0.14062,1.00781 -8.64844,0 0.14062,-1.00781 c 1.01563,-0.21875 1.80469,-0.45313 2.36719,-0.70313 0.57812,-0.26562 0.88281,-0.50781 0.91406,-0.72656 l 3.65625,-25.19531 c -0.48438,-0.3281 -0.99219,-0.55466 -1.52343,-0.67969 -0.51563,-0.1406 -0.97657,-0.21091 -1.38282,-0.21094 l 0.14063,-1.00781 6.21094,0 c 0.12499,3e-5 0.22655,0.0235 0.30468,0.0703 0.0937,0.0469 0.17187,0.14065 0.23438,0.28125 0.0781,0.14065 0.15624,0.34378 0.23437,0.60938 0.0781,0.25002 0.17187,0.58596 0.28125,1.00781 l 5.83594,20.97656 10.75781,-20.97656 c 0.21873,-0.42185 0.39841,-0.75779 0.53907,-1.00781 0.15622,-0.2656 0.28903,-0.46873 0.39843,-0.60938 0.12498,-0.1406 0.23435,-0.23434 0.32813,-0.28125 0.10935,-0.0468 0.23435,-0.0703 0.375,-0.0703 l 6.09375,0 -0.0937,1.00781"
         style="font-size:48px;fill:#4d4d4d;fill-opacity:1;stroke:#625353;stroke-width:1.57981861000000001;stroke-miterlimit:4;stroke-opacity:1;stroke-dasharray:none;font-family:Gentium;-inkscape-font-specification:Gentium Bold Italic"
         id="path3027"
         inkscape:connector-curvature="0" />
      <path
         d="m 437.45312,317.48341 c 0.32812,0 0.77343,-0.25781 1.33594,-0.77344 0.56249,-0.53125 1.16405,-1.23437 1.80469,-2.10937 0.65624,-0.875 1.31249,-1.89062 1.96875,-3.04688 0.67186,-1.15624 1.26561,-2.36718 1.78125,-3.63281 0.0625,-0.59374 0.12499,-1.21093 0.1875,-1.85156 0.0781,-0.65624 0.17967,-1.35155 0.30469,-2.08594 0.0469,-0.32811 0.10936,-0.64061 0.1875,-0.9375 0.0937,-0.29686 0.19529,-0.57811 0.30468,-0.84375 -0.23439,-0.18748 -0.4922,-0.39061 -0.77343,-0.60938 -0.28127,-0.21873 -0.59377,-0.42967 -0.9375,-0.63281 -0.32814,-0.20311 -0.68752,-0.36717 -1.07813,-0.49219 -0.39064,-0.1406 -0.8047,-0.21091 -1.24219,-0.21093 -0.71876,2e-5 -1.39844,0.1797 -2.03906,0.53906 -0.64063,0.34377 -1.23438,0.8047 -1.78125,1.38281 -0.53125,0.57814 -1.01563,1.2422 -1.45312,1.99219 -0.42188,0.73439 -0.78907,1.50001 -1.10157,2.29687 -0.29688,0.78127 -0.53125,1.5547 -0.70312,2.32032 -0.15625,0.76563 -0.23438,1.45313 -0.23438,2.0625 0,1.01563 0.0937,1.92969 0.28125,2.74218 0.1875,0.81251 0.4375,1.50782 0.75,2.08594 0.3125,0.57813 0.67969,1.02344 1.10157,1.33594 0.42187,0.3125 0.86718,0.46875 1.33593,0.46875 m 12.67969,-18.86719 c -0.53127,0.43752 -0.95314,0.97658 -1.26562,1.61719 -0.2969,0.64064 -0.51565,1.52345 -0.65625,2.64844 -0.21877,1.85939 -0.38283,3.5547 -0.49219,5.08593 -0.0938,1.53126 -0.17971,2.96876 -0.25781,4.3125 -0.0625,1.32813 -0.14846,2.60157 -0.25782,3.82032 -0.0938,1.20312 -0.25001,2.40625 -0.46875,3.60937 -0.28126,1.625 -0.78126,3.14844 -1.5,4.57031 -0.70314,1.42187 -1.54688,2.66406 -2.53125,3.72657 -0.96876,1.06249 -2.04688,1.89842 -3.23437,2.50781 -1.17188,0.62499 -2.3672,0.93749 -3.58594,0.9375 -0.65625,-10e-6 -1.36719,-0.10158 -2.13281,-0.30469 -0.75,-0.18751 -1.44532,-0.42189 -2.08594,-0.70312 -0.64062,-0.28126 -1.17969,-0.58595 -1.61719,-0.91407 -0.42187,-0.32813 -0.63281,-0.63282 -0.63281,-0.91406 0,-0.26563 0.10157,-0.57032 0.30469,-0.91406 0.20312,-0.32813 0.4375,-0.64063 0.70312,-0.9375 0.26563,-0.28126 0.52344,-0.52345 0.77344,-0.72656 0.26563,-0.20314 0.45313,-0.3047 0.5625,-0.30469 0.125,-10e-6 0.25,0.0781 0.375,0.23437 0.14062,0.15625 0.30469,0.34375 0.49219,0.5625 0.20312,0.23437 0.4375,0.48437 0.70312,0.75 0.28125,0.28125 0.61719,0.53125 1.00782,0.75 0.39062,0.23437 0.85937,0.42968 1.40625,0.58594 0.54687,0.15624 1.18749,0.23437 1.92187,0.23438 1.51562,-10e-6 2.71874,-0.6797 3.60938,-2.03907 0.89061,-1.35938 1.56248,-3.34375 2.01562,-5.95312 0.14061,-0.875 0.24999,-1.69531 0.32813,-2.46094 0.0937,-0.78125 0.16405,-1.53125 0.21093,-2.25 0.0625,-0.73437 0.10937,-1.44531 0.14063,-2.13281 0.0312,-0.70312 0.0625,-1.42187 0.0937,-2.15625 -0.50001,0.98438 -1.08595,2 -1.75781,3.04687 -0.65626,1.03126 -1.35939,1.97657 -2.10938,2.83594 -0.73438,0.85938 -1.48438,1.5625 -2.25,2.10938 -0.76563,0.56249 -1.49219,0.84374 -2.17969,0.84375 -0.51563,-10e-6 -1.07031,-0.14844 -1.66406,-0.44532 -0.57813,-0.29687 -1.125,-0.76562 -1.64062,-1.40625 -0.5,-0.65625 -0.91407,-1.49218 -1.24219,-2.50781 -0.32813,-1.03124 -0.49219,-2.28124 -0.49219,-3.75 0,-1.23437 0.14063,-2.43749 0.42188,-3.60937 0.28125,-1.18749 0.70312,-2.31249 1.26562,-3.375 0.57812,-1.07811 1.29687,-2.08593 2.15625,-3.02344 0.85937,-0.95311 1.86718,-1.81248 3.02344,-2.57813 0.43749,-0.28123 0.90624,-0.55466 1.40625,-0.82031 0.49999,-0.2656 1.01561,-0.49998 1.54687,-0.70312 0.53124,-0.20311 1.05468,-0.36717 1.57032,-0.49219 0.53123,-0.12498 1.03905,-0.18748 1.52343,-0.1875 0.34374,2e-5 0.67968,0.0547 1.00782,0.16406 0.32811,0.0938 0.64061,0.21877 0.9375,0.375 0.31248,0.15627 0.60154,0.32815 0.86718,0.51563 0.28124,0.18752 0.54686,0.35939 0.79688,0.51562 0.35936,-0.34373 0.73436,-0.6406 1.125,-0.89062 0.40623,-0.24998 0.81248,-0.47655 1.21875,-0.67969 l 0.53906,0.82031 0,0"
         style="font-size:48px;fill:#4d4d4d;fill-opacity:1;stroke:#625353;stroke-width:1.57981861000000001;stroke-miterlimit:4;stroke-opacity:1;stroke-dasharray:none;font-family:Gentium;-inkscape-font-specification:Gentium Bold Italic"
         id="path3029"
         inkscape:connector-curvature="0" />
      <path
         d="m 468.90625,299.81153 c -0.18752,0.25002 -0.39846,0.55471 -0.63281,0.91407 -0.21877,0.35939 -0.44533,0.71095 -0.67969,1.05468 -0.21877,0.32815 -0.4297,0.6094 -0.63281,0.84375 -0.20314,0.2344 -0.38283,0.35158 -0.53907,0.35157 -0.29689,1e-5 -0.5547,-0.0859 -0.77343,-0.25782 -0.20314,-0.17185 -0.39845,-0.35154 -0.58594,-0.53906 -0.17189,-0.20311 -0.35158,-0.39061 -0.53906,-0.5625 -0.17189,-0.17186 -0.37502,-0.25779 -0.60938,-0.25781 -0.40626,2e-5 -0.88282,0.28127 -1.42969,0.84375 -0.53126,0.54689 -1.07032,1.27345 -1.61718,2.17969 -0.53126,0.89064 -1.04689,1.89845 -1.54688,3.02343 -0.48438,1.10939 -0.89063,2.22658 -1.21875,3.35157 -0.17188,0.59375 -0.32813,1.25 -0.46875,1.96875 -0.125,0.70313 -0.24219,1.42969 -0.35156,2.17968 -0.0938,0.75001 -0.16407,1.49219 -0.21094,2.22657 -0.0469,0.71875 -0.0547,1.39062 -0.0234,2.01562 -0.20313,0.10938 -0.46094,0.23438 -0.77343,0.375 -0.29688,0.125 -0.60938,0.25781 -0.9375,0.39844 -0.31251,0.14062 -0.61719,0.27344 -0.91407,0.39844 -0.29687,0.14062 -0.53906,0.26562 -0.72656,0.375 l -0.77344,-0.72657 c 0.23438,-1.10937 0.46094,-2.25781 0.67969,-3.44531 0.21875,-1.18749 0.42187,-2.36718 0.60938,-3.53906 0.20312,-1.18749 0.38281,-2.34374 0.53906,-3.46875 0.17187,-1.12499 0.3125,-2.17186 0.42187,-3.14063 0.125,-0.96873 0.21875,-1.83592 0.28125,-2.60156 0.0781,-0.76561 0.11719,-1.38279 0.11719,-1.85156 0,-0.35936 -0.0312,-0.64061 -0.0937,-0.84375 -0.0469,-0.21873 -0.11719,-0.37498 -0.21094,-0.46875 -0.0781,-0.10936 -0.17969,-0.17967 -0.30468,-0.21094 -0.10938,-0.0312 -0.22657,-0.0469 -0.35157,-0.0469 -0.14062,2e-5 -0.35156,0.0313 -0.63281,0.0937 -0.26563,0.0625 -0.53125,0.13283 -0.79687,0.21093 -0.26563,0.0625 -0.5,0.12502 -0.70313,0.1875 -0.1875,0.0469 -0.28125,0.0703 -0.28125,0.0703 l -0.32812,-0.86719 c 0.65625,-0.29686 1.3125,-0.57811 1.96875,-0.84375 0.67187,-0.28123 1.29687,-0.52342 1.875,-0.72656 0.57812,-0.20311 1.07812,-0.36717 1.5,-0.49219 0.43749,-0.12498 0.74999,-0.18748 0.9375,-0.1875 0.21874,2e-5 0.39061,0.0391 0.51562,0.11719 0.12499,0.0781 0.21093,0.21877 0.25781,0.42187 0.0625,0.18752 0.10156,0.46096 0.11719,0.82031 0.0156,0.34377 0.0234,0.78909 0.0234,1.33594 -10e-6,0.17189 -0.0235,0.46096 -0.0703,0.86719 -0.0469,0.40627 -0.10157,0.85158 -0.16407,1.33594 -0.0625,0.46876 -0.13282,0.93751 -0.21093,1.40625 -0.0625,0.46876 -0.1172,0.85157 -0.16407,1.14843 0.75,-1.54686 1.46093,-2.80467 2.13282,-3.77343 0.67186,-0.96874 1.30467,-1.72655 1.89843,-2.27344 0.60937,-0.54686 1.18749,-0.91404 1.73438,-1.10156 0.54686,-0.20311 1.0703,-0.30467 1.57031,-0.30469 0.28124,2e-5 0.53124,0.0781 0.75,0.23437 0.23436,0.15627 0.46874,0.34377 0.70313,0.5625 0.23436,0.21877 0.48436,0.44534 0.75,0.67969 0.26561,0.21877 0.57029,0.39846 0.91406,0.53906"
         style="font-size:48px;fill:#4d4d4d;fill-opacity:1;stroke:#625353;stroke-width:1.57981861000000001;stroke-miterlimit:4;stroke-opacity:1;stroke-dasharray:none;font-family:Gentium;-inkscape-font-specification:Gentium Bold Italic"
         id="path3031"
         inkscape:connector-curvature="0" />
    </g>
    <g
       id="g4070"
       transform="translate(-55.025023,-442.59257)">
      <path
         inkscape:export-ydpi="90"
         inkscape:export-xdpi="90"
         inkscape:export-filename="/home/floh/D/programing/flowtime/site/logo/flowtime-logo-einfacher.png"
         sodipodi:nodetypes="czcc"
         inkscape:connector-curvature="0"
         id="path3000-5"
         d="m 517.37219,903.71259 c 31.47095,-12.56742 60.81348,-17.40643 96.94207,4.09123 36.12859,21.49766 59.37645,51.78757 17.36743,52.05265 -52.46512,-6.34131 -35.67828,-44.63628 -114.3095,-56.14388 z"
         style="opacity:0.52396168;fill:#ffffff;stroke:none;filter:url(#filter3864)" />
    </g>
  </g>
</svg>
